<svg width="221" height="220" viewBox="0 0 221 220" fill="none" xmlns="http://www.w3.org/2000/svg">
<path d="M210.388 109.973C210.388 165.41 165.447 210.351 110.01 210.351C54.5731 210.351 9.63245 165.41 9.63245 109.973C9.63245 54.5356 54.5731 9.59497 110.01 9.59497C165.447 9.59497 210.388 54.5356 210.388 109.973Z" fill="#DECBB2"/>
<path d="M205.936 111.985L208.994 113.392L217.858 110.135L217.765 112.132L211.236 114.425L217.524 117.343L217.432 119.325L205.852 113.791L205.936 111.985Z" fill="#39281C"/>
<path d="M207.277 129.542L206.924 131.657C206.429 131.315 206.002 130.925 205.643 130.486C205.282 130.058 204.993 129.588 204.776 129.076C204.567 128.576 204.43 128.039 204.363 127.466C204.306 126.905 204.327 126.324 204.427 125.725C204.569 124.872 204.855 124.098 205.285 123.402C205.726 122.708 206.266 122.128 206.906 121.662C207.545 121.206 208.259 120.882 209.048 120.689C209.837 120.497 210.652 120.471 211.494 120.611C212.336 120.752 213.099 121.036 213.785 121.464C214.469 121.903 215.034 122.435 215.481 123.061C215.936 123.7 216.256 124.408 216.44 125.185C216.633 125.974 216.659 126.789 216.518 127.631C216.416 128.241 216.24 128.812 215.989 129.343C215.748 129.876 215.437 130.348 215.054 130.76C214.681 131.185 214.248 131.545 213.755 131.841C213.272 132.139 212.743 132.364 212.166 132.516L212.506 130.481C213.155 130.157 213.662 129.744 214.027 129.242C214.39 128.751 214.634 128.133 214.758 127.386C214.859 126.786 214.841 126.21 214.706 125.657C214.582 125.107 214.357 124.609 214.031 124.166C213.716 123.724 213.312 123.354 212.821 123.055C212.341 122.759 211.801 122.56 211.201 122.46C210.602 122.36 210.02 122.376 209.457 122.509C208.905 122.644 208.402 122.874 207.947 123.198C207.493 123.522 207.108 123.918 206.792 124.384C206.485 124.863 206.282 125.396 206.184 125.986C206.075 126.638 206.105 127.238 206.273 127.785C206.439 128.343 206.774 128.928 207.277 129.542Z" fill="#39281C"/>
<path d="M203.113 133.625L214.413 137.105L211.96 145.071L200.66 141.592L201.206 139.818L210.824 142.78L212.185 138.36L202.567 135.399L203.113 133.625Z" fill="#39281C"/>
<path d="M199.542 144.608L210.415 149.255L207.906 155.125L206.287 154.434L208.067 150.27L205.065 148.987L203.355 152.989L201.737 152.298L203.447 148.296L200.431 147.007L198.651 151.17L197.033 150.479L199.542 144.608Z" fill="#39281C"/>
<path d="M208.208 161.606L207.412 163.012C207.022 162.791 206.692 162.715 206.421 162.782C206.15 162.849 205.92 163.05 205.73 163.384C205.536 163.727 205.482 164.028 205.569 164.286C205.651 164.552 205.887 164.796 206.277 165.017L205.473 166.437C204.909 165.983 204.578 165.452 204.48 164.846C204.382 164.239 204.525 163.596 204.909 162.919C205.287 162.25 205.762 161.802 206.333 161.574C206.903 161.345 207.528 161.356 208.208 161.606ZM196.159 152.523L206.449 158.348L205.542 159.949L197.87 155.606L202.696 164.976L201.774 166.605L191.485 160.779L192.391 159.178L200.063 163.522L195.237 154.152L196.159 152.523Z" fill="#39281C"/>
<path d="M189.038 164.357L197.241 170.188L198.613 168.258L200.047 169.277L196.238 174.637L194.803 173.618L196.166 171.701L187.963 165.87L189.038 164.357Z" fill="#39281C"/>
<path d="M185.304 169.477L194.333 177.11L190.212 181.985L188.868 180.849L191.791 177.391L189.298 175.284L186.489 178.608L185.145 177.471L187.954 174.148L185.449 172.03L182.526 175.488L181.182 174.352L185.304 169.477Z" fill="#39281C"/>
<path d="M179.146 181.596L177.731 182.846C177.555 182.647 177.345 182.49 177.103 182.377C176.868 182.272 176.626 182.208 176.378 182.185C176.137 182.17 175.893 182.2 175.647 182.275C175.392 182.358 175.165 182.487 174.965 182.664C174.758 182.848 174.601 183.057 174.496 183.292C174.391 183.528 174.33 183.766 174.316 184.007C174.3 184.263 174.334 184.51 174.417 184.75C174.499 185.004 174.629 185.231 174.806 185.431C175.243 185.927 175.733 186.142 176.273 186.077C176.813 186.028 177.426 185.699 178.114 185.092L179.205 186.327C178.629 186.835 178.278 187.316 178.152 187.769C178.025 188.238 178.131 188.664 178.47 189.047C178.611 189.207 178.781 189.327 178.98 189.408C179.178 189.503 179.375 189.557 179.571 189.569C179.774 189.589 179.98 189.564 180.188 189.494C180.388 189.43 180.568 189.328 180.728 189.187C180.896 189.039 181.024 188.869 181.111 188.678C181.199 188.487 181.249 188.286 181.262 188.075C181.274 187.879 181.245 187.677 181.175 187.469C181.111 187.268 181.009 187.088 180.868 186.928L182.247 185.71C182.551 186.054 182.769 186.438 182.901 186.862C183.041 187.293 183.093 187.724 183.059 188.152C183.032 188.589 182.919 189.009 182.721 189.412C182.521 189.831 182.245 190.195 181.894 190.506C181.542 190.817 181.15 191.042 180.718 191.181C180.286 191.336 179.855 191.396 179.426 191.362C178.997 191.343 178.58 191.242 178.175 191.058C177.771 190.874 177.417 190.611 177.114 190.267C176.739 189.843 176.527 189.369 176.476 188.845C176.424 188.335 176.537 187.866 176.812 187.437C176.548 187.557 176.256 187.629 175.938 187.655C175.619 187.681 175.306 187.658 175.001 187.586C174.688 187.521 174.392 187.412 174.114 187.259C173.829 187.113 173.58 186.92 173.368 186.68C173.029 186.296 172.784 185.865 172.632 185.387C172.487 184.918 172.434 184.438 172.471 183.949C172.509 183.46 172.64 182.989 172.865 182.534C173.082 182.086 173.39 181.686 173.789 181.333C174.181 180.987 174.616 180.731 175.095 180.564C175.581 180.405 176.066 180.333 176.548 180.347C177.03 180.377 177.499 180.497 177.954 180.707C178.41 180.916 178.807 181.213 179.146 181.596Z" fill="#39281C"/>
<path d="M169.892 185.172L172.549 197.722L171.235 198.635L160.377 191.779L162.059 190.611L165.132 192.568L168.944 189.922L168.223 186.331L169.892 185.172ZM169.395 191.751L166.754 193.585L170.459 196.115L169.395 191.751Z" fill="#39281C"/>
<path d="M158.669 192.749L164.226 203.185L162.588 204.058L160.137 199.454L158.846 206.05L156.84 207.118L158.439 199.669L151.283 196.682L153.302 195.606L159.52 198.296L157.031 193.621L158.669 192.749Z" fill="#39281C"/>
<path d="M150.314 197.268L149.905 210.09L148.411 210.664L139.499 201.419L141.411 200.685L143.93 203.318L148.261 201.655L148.417 197.997L150.314 197.268ZM148.265 203.539L145.262 204.691L148.258 208.032L148.265 203.539Z" fill="#39281C"/>
<path d="M139.179 205.175L137.351 205.648C137.284 205.39 137.168 205.155 137.004 204.944C136.842 204.744 136.655 204.577 136.445 204.444C136.237 204.322 136.006 204.239 135.752 204.194C135.487 204.152 135.226 204.165 134.968 204.232C134.7 204.301 134.465 204.417 134.265 204.579C134.064 204.741 133.903 204.926 133.78 205.134C133.65 205.355 133.568 205.591 133.534 205.842C133.492 206.107 133.505 206.368 133.571 206.626C133.737 207.266 134.076 207.68 134.587 207.867C135.09 208.067 135.786 208.052 136.674 207.823L137.087 209.418C136.344 209.61 135.813 209.88 135.495 210.227C135.169 210.587 135.071 211.014 135.199 211.51C135.253 211.716 135.35 211.901 135.491 212.062C135.624 212.237 135.775 212.374 135.944 212.474C136.116 212.584 136.311 212.655 136.528 212.686C136.736 212.721 136.942 212.711 137.149 212.658C137.366 212.602 137.556 212.508 137.721 212.378C137.885 212.247 138.021 212.091 138.128 211.909C138.228 211.74 138.294 211.546 138.325 211.329C138.36 211.122 138.35 210.915 138.297 210.708L140.078 210.247C140.193 210.691 140.214 211.132 140.14 211.57C140.068 212.018 139.92 212.425 139.696 212.792C139.474 213.169 139.183 213.492 138.823 213.762C138.455 214.044 138.044 214.244 137.59 214.362C137.136 214.479 136.684 214.503 136.236 214.431C135.78 214.373 135.369 214.231 135.002 214.007C134.628 213.795 134.302 213.516 134.025 213.169C133.748 212.822 133.552 212.426 133.437 211.982C133.296 211.435 133.321 210.916 133.514 210.426C133.699 209.948 134.011 209.581 134.451 209.323C134.162 209.31 133.869 209.243 133.573 209.121C133.277 208.999 133.009 208.837 132.769 208.635C132.519 208.435 132.305 208.204 132.127 207.942C131.939 207.682 131.804 207.397 131.724 207.087C131.596 206.592 131.572 206.097 131.654 205.602C131.738 205.117 131.907 204.666 132.163 204.247C132.418 203.828 132.749 203.467 133.155 203.164C133.551 202.863 134.007 202.646 134.523 202.512C135.029 202.381 135.533 202.35 136.036 202.418C136.541 202.497 137.005 202.652 137.429 202.884C137.845 203.129 138.209 203.448 138.52 203.841C138.831 204.235 139.05 204.679 139.179 205.175Z" fill="#39281C"/>
<path d="M129.361 204.152L126.019 216.537L124.434 216.753L117.882 205.709L119.911 205.434L121.758 208.574L126.356 207.95L127.347 204.425L129.361 204.152ZM125.927 209.785L122.74 210.217L124.889 214.156L125.927 209.785Z" fill="#39281C"/>
<path d="M114.52 205.794L114.83 215.853L117.197 215.78L117.252 217.539L110.679 217.742L110.624 215.983L112.975 215.91L112.665 205.851L114.52 205.794Z" fill="#39281C"/>
<path d="M107.833 205.954L107.058 217.752L105.206 217.63L105.518 212.889L104.24 212.805C103.804 212.776 103.421 212.74 103.093 212.697C102.764 212.654 102.474 212.603 102.221 212.544C101.958 212.484 101.728 212.41 101.53 212.322C101.332 212.245 101.146 212.153 100.971 212.045C100.478 211.735 100.111 211.304 99.8694 210.754C99.6163 210.214 99.5114 209.613 99.5547 208.953C99.598 208.294 99.7745 207.723 100.084 207.24C100.383 206.758 100.798 206.384 101.328 206.12C101.527 206.026 101.74 205.949 101.969 205.889C102.187 205.829 102.43 205.78 102.7 205.745C102.969 205.72 103.274 205.708 103.616 205.709C103.947 205.709 104.326 205.723 104.752 205.751L107.833 205.954ZM105.866 207.588L104.732 207.514C104.264 207.483 103.885 207.469 103.597 207.471C103.308 207.474 103.039 207.493 102.791 207.53C102.39 207.611 102.069 207.788 101.826 208.06C101.584 208.333 101.449 208.682 101.421 209.108C101.397 209.47 101.477 209.791 101.662 210.07C101.836 210.349 102.101 210.553 102.456 210.683C102.684 210.784 102.957 210.861 103.274 210.913C103.591 210.977 103.967 211.023 104.404 211.052L105.633 211.132L105.866 207.588Z" fill="#39281C"/>
<path d="M92.5513 204.369L89.9824 215.911L87.4992 215.358C86.0415 215.033 85.0247 214.545 84.4488 213.892C83.8601 213.247 83.6817 212.405 83.9134 211.363C84.0385 210.801 84.2383 210.37 84.5126 210.071C84.7765 209.769 85.1705 209.545 85.6946 209.399C85.0619 208.953 84.6444 208.472 84.4421 207.957C84.2271 207.45 84.2007 206.832 84.3629 206.103C84.6109 204.989 85.1734 204.229 86.0506 203.824C86.9277 203.418 88.0951 203.377 89.5527 203.702L92.5513 204.369ZM90.3573 205.684L89.1235 205.409C88.2281 205.21 87.5484 205.195 87.0844 205.365C86.618 205.545 86.3177 205.937 86.1833 206.541C86.0628 207.083 86.1447 207.549 86.4292 207.94C86.7033 208.329 87.1371 208.589 87.7305 208.722L89.5891 209.135L90.3573 205.684ZM89.1997 210.884L87.5599 210.519C87.0705 210.411 86.6742 210.448 86.371 210.632C86.0655 210.826 85.8606 211.158 85.7564 211.626C85.6428 212.136 85.7283 212.538 86.0128 212.831C86.2846 213.131 86.7849 213.363 87.5137 213.525L88.5601 213.758L89.1997 210.884Z" fill="#39281C"/>
<path d="M83.2844 202.334L79.2555 213.451L77.5106 212.818L79.1298 208.35L77.9264 207.914C76.3218 207.333 75.2448 206.642 74.6954 205.841C74.1459 205.041 74.0801 204.064 74.4981 202.911C74.9088 201.778 75.5934 201.078 76.5518 200.813C77.5102 200.548 78.7867 200.704 80.3812 201.282L83.2844 202.334ZM80.9398 203.356L79.8718 202.969C79.3904 202.795 78.9569 202.66 78.5713 202.566C78.1757 202.468 77.8307 202.434 77.5364 202.463C77.2321 202.489 76.9747 202.589 76.7644 202.762C76.5541 202.935 76.3817 203.208 76.2472 203.579C76.0437 204.14 76.1303 204.637 76.5071 205.068C76.8803 205.51 77.5684 205.913 78.5712 206.276L79.7295 206.696L80.9398 203.356ZM74.4845 199.145L70.4556 210.261L68.7107 209.629L72.7396 198.512L74.4845 199.145Z" fill="#39281C"/>
<path d="M69.7264 197.09L64.4411 207.667L59.0167 204.956L59.8034 203.382L63.5676 205.263L68.0661 196.26L69.7264 197.09Z" fill="#39281C"/>
<path d="M60.1897 199.05C59.7179 199.774 59.147 200.357 58.477 200.799C57.8012 201.249 57.075 201.553 56.2985 201.709C55.5221 201.865 54.7321 201.866 53.9288 201.711C53.1106 201.56 52.3307 201.242 51.5891 200.759C50.8831 200.299 50.3092 199.734 49.8674 199.064C49.4166 198.388 49.1133 197.662 48.9573 196.885C48.7955 196.118 48.7889 195.337 48.9375 194.542C49.0714 193.751 49.3654 193.007 49.8198 192.31C50.2916 191.586 50.8654 190.999 51.5412 190.548C52.2112 190.106 52.9299 189.804 53.6975 189.643C54.4561 189.475 55.2355 189.461 56.0358 189.601C56.8302 189.749 57.5893 190.059 58.3132 190.531C59.037 191.003 59.6287 191.58 60.0884 192.261C60.5392 192.937 60.8544 193.665 61.0341 194.444C61.2048 195.217 61.2232 196 61.0894 196.791C60.9497 197.591 60.6498 198.344 60.1897 199.05ZM58.6127 198.041C58.9447 197.532 59.1625 196.993 59.2661 196.424C59.3638 195.864 59.3552 195.31 59.24 194.764C59.1249 194.218 58.9096 193.708 58.5941 193.235C58.2696 192.757 57.8527 192.351 57.3433 192.019C56.834 191.687 56.3037 191.475 55.7525 191.383C55.1923 191.285 54.6465 191.293 54.1151 191.405C53.5837 191.517 53.086 191.733 52.6218 192.055C52.1429 192.379 51.7375 192.796 51.4055 193.305C51.0677 193.824 50.8469 194.367 50.7434 194.936C50.6398 195.506 50.6411 196.06 50.7473 196.601C50.8534 197.141 51.0761 197.649 51.4154 198.125C51.7398 198.604 52.1612 199.012 52.6795 199.35C53.171 199.67 53.6997 199.875 54.2657 199.964C54.817 200.055 55.3612 200.041 55.8984 199.92C56.4356 199.799 56.9407 199.581 57.4138 199.265C57.8869 198.95 58.2865 198.542 58.6127 198.041Z" fill="#39281C"/>
<path d="M53.2138 184.715L50.5552 187.746L49.4606 186.786L39.637 191.557L38.422 190.491L41.8702 180.129L40.7876 179.18L43.4462 176.149L44.4205 177.003L43.2593 179.007L50.3925 185.263L52.2274 183.85L53.2138 184.715ZM48.0051 185.51L43.3257 181.406L40.7551 189.069L48.0051 185.51Z" fill="#39281C"/>
<path d="M41.0043 176.756L32.1148 184.553L30.891 183.157L34.5839 179.918L31.3873 176.274L27.6944 179.512L26.4706 178.117L35.3601 170.321L36.5839 171.716L32.7105 175.113L35.9071 178.758L39.7805 175.361L41.0043 176.756Z" fill="#39281C"/>
<path d="M28.8422 171.831C28.1219 172.308 27.3665 172.616 26.5762 172.756C25.777 172.901 24.9901 172.892 24.2155 172.727C23.4409 172.561 22.7155 172.249 22.0394 171.788C21.3486 171.324 20.7587 170.724 20.2698 169.986C19.8045 169.283 19.502 168.537 19.3624 167.746C19.2169 166.947 19.2266 166.16 19.3917 165.385C19.5478 164.617 19.8518 163.897 20.3035 163.227C20.7404 162.554 21.3056 161.988 21.9993 161.528C22.7196 161.051 23.4794 160.74 24.2786 160.594C25.0689 160.455 25.8484 160.463 26.6172 160.619C27.38 160.766 28.1009 161.063 28.78 161.509C29.4502 161.96 30.0239 162.546 30.501 163.267C30.9781 163.987 31.2923 164.751 31.4437 165.559C31.5893 166.359 31.5898 167.151 31.4455 167.938C31.2952 168.715 31.0016 169.441 30.5647 170.114C30.1189 170.793 29.5447 171.365 28.8422 171.831ZM27.7951 170.279C28.302 169.943 28.716 169.535 29.0369 169.053C29.349 168.578 29.5606 168.067 29.6717 167.52C29.7828 166.973 29.7874 166.42 29.6855 165.86C29.5778 165.292 29.356 164.754 29.0203 164.247C28.6846 163.74 28.282 163.335 27.8125 163.032C27.3371 162.72 26.8334 162.51 26.3012 162.402C25.769 162.294 25.2261 162.295 24.6725 162.406C24.1042 162.514 23.5666 162.735 23.0597 163.071C22.5439 163.413 22.1255 163.824 21.8046 164.306C21.4836 164.787 21.2646 165.296 21.1476 165.835C21.0306 166.373 21.0334 166.927 21.1559 167.499C21.2637 168.067 21.4884 168.609 21.83 169.125C22.154 169.614 22.5581 170.012 23.0423 170.318C23.5118 170.621 24.0171 170.824 24.5582 170.926C25.0993 171.028 25.6495 171.028 26.209 170.926C26.7684 170.825 27.2971 170.609 27.7951 170.279Z" fill="#39281C"/>
<path d="M14.1324 113.626L10.998 112.398L2.33697 116.162L2.31381 114.163L8.69937 111.497L2.25341 108.947L2.23044 106.963L14.1115 111.818L14.1324 113.626Z" fill="#39281C"/>
<path d="M11.8306 95.7377L12.0698 93.6071C12.5818 93.9222 13.029 94.289 13.4114 94.7076C13.7949 95.1156 14.1089 95.5695 14.3534 96.0692C14.5884 96.5572 14.7545 97.0857 14.8516 97.6547C14.9393 98.212 14.9493 98.7927 14.8815 99.3969C14.7851 100.256 14.5409 101.044 14.1491 101.762C13.7466 102.479 13.2382 103.087 12.6239 103.587C12.0108 104.077 11.3154 104.439 10.5377 104.673C9.76004 104.908 8.94718 104.978 8.09918 104.883C7.25117 104.787 6.47342 104.544 5.76592 104.154C5.05961 103.752 4.46649 103.251 3.98657 102.65C3.49724 102.037 3.13993 101.347 2.91463 100.581C2.67992 99.8037 2.61016 98.9908 2.70535 98.1428C2.77437 97.528 2.91991 96.9486 3.14197 96.4047C3.35344 95.8595 3.63905 95.371 3.99881 94.9391C4.34916 94.4954 4.76246 94.1125 5.23871 93.7902C5.70436 93.4668 6.22117 93.2136 6.78914 93.0304L6.55889 95.0816C5.92829 95.4401 5.44425 95.8795 5.10678 96.3998C4.77049 96.9095 4.56011 97.5406 4.47562 98.2932C4.4078 98.8974 4.45603 99.4717 4.62033 100.016C4.77403 100.559 5.02556 101.044 5.37493 101.469C5.71369 101.894 6.13618 102.242 6.64239 102.513C7.13799 102.784 7.6879 102.953 8.2921 103.02C8.89631 103.088 9.47591 103.041 10.0309 102.878C10.5753 102.713 11.0656 102.457 11.5018 102.109C11.9381 101.761 12.3013 101.345 12.5917 100.863C12.8726 100.368 13.0463 99.8242 13.113 99.2306C13.1867 98.5734 13.125 97.9761 12.9277 97.4387C12.7316 96.8908 12.3659 96.3238 11.8306 95.7377Z" fill="#39281C"/>
<path d="M15.7024 91.708L4.22254 88.8762L6.21901 80.7828L17.6989 83.6146L17.2544 85.4166L7.48328 83.0063L6.37583 87.4957L16.1469 89.906L15.7024 91.708Z" fill="#39281C"/>
<path d="M18.6301 80.5387L7.51365 76.5098L9.68892 70.5078L11.3436 71.1075L9.80074 75.3646L12.8694 76.4767L14.3523 72.3852L16.007 72.9849L14.5241 77.0764L17.6078 78.194L19.1507 73.937L20.8054 74.5367L18.6301 80.5387Z" fill="#39281C"/>
<path d="M9.05286 63.9499L9.76984 62.5017C10.1713 62.7004 10.5055 62.7587 10.7723 62.6766C11.0391 62.5944 11.2577 62.3813 11.4281 62.0372C11.6032 61.6835 11.6401 61.3804 11.539 61.128C11.4425 60.866 11.1936 60.6356 10.7921 60.4368L11.5161 58.9743C12.1046 59.3965 12.4643 59.9079 12.5955 60.5084C12.7267 61.109 12.6195 61.7581 12.2741 62.456C11.9333 63.1443 11.4844 63.6183 10.9273 63.8781C10.3702 64.1379 9.7454 64.1618 9.05286 63.9499ZM21.5867 72.3509L10.9902 67.105L11.8065 65.456L19.7073 69.3674L14.3692 60.2796L15.1997 58.6019L25.7963 63.8479L24.9799 65.4969L17.0791 61.5855L22.4173 70.6733L21.5867 72.3509Z" fill="#39281C"/>
<path d="M28.2012 59.8547L19.7103 54.4522L18.4391 56.4501L16.9542 55.5053L20.4843 49.9571L21.9692 50.9019L20.7066 52.8863L29.1976 58.2888L28.2012 59.8547Z" fill="#39281C"/>
<path d="M31.5972 54.6208L22.1899 47.4576L26.0575 42.3785L27.4577 43.4447L24.7146 47.0472L27.3114 49.0246L29.948 45.5621L31.3482 46.6283L28.7117 50.0908L31.3213 52.0779L34.0644 48.4754L35.4647 49.5416L31.5972 54.6208Z" fill="#39281C"/>
<path d="M36.7716 42.5218L38.1163 41.1965C38.3035 41.3865 38.5212 41.5313 38.7694 41.6312C39.01 41.7235 39.2548 41.7743 39.5037 41.7836C39.745 41.7854 39.9867 41.7419 40.2287 41.6531C40.4783 41.5569 40.6981 41.4152 40.888 41.228C41.0855 41.0333 41.2304 40.8156 41.3227 40.5749C41.4149 40.3342 41.462 40.0932 41.4637 39.8519C41.4656 39.5954 41.4183 39.3499 41.322 39.1154C41.2257 38.8658 41.084 38.646 40.8968 38.4561C40.4326 37.9851 39.9324 37.7967 39.3962 37.8908C38.8601 37.9699 38.2653 38.3314 37.612 38.9753L36.4552 37.8016C37.0022 37.2625 37.3264 36.7632 37.4278 36.3039C37.5293 35.8294 37.4003 35.4099 37.0409 35.0452C36.8912 34.8933 36.7147 34.7826 36.5116 34.7133C36.3085 34.6288 36.109 34.5859 35.9129 34.5844C35.7093 34.5754 35.5054 34.6117 35.3011 34.6931C35.1045 34.7671 34.9302 34.879 34.7782 35.0288C34.6187 35.186 34.5005 35.3624 34.4237 35.5579C34.3468 35.7535 34.3076 35.9569 34.3061 36.168C34.3047 36.3641 34.3447 36.5643 34.4262 36.7686C34.5002 36.9652 34.612 37.1395 34.7618 37.2914L33.4513 38.583C33.1293 38.2564 32.8907 37.885 32.7353 37.4691C32.5724 37.0455 32.4963 36.6188 32.507 36.1889C32.5102 35.7515 32.6 35.326 32.7765 34.9124C32.9531 34.4837 33.2085 34.1047 33.5428 33.7752C33.8771 33.4458 34.256 33.1996 34.6796 33.0368C35.1032 32.8588 35.53 32.7752 35.9599 32.7859C36.3898 32.7814 36.8117 32.8599 37.2253 33.0213C37.639 33.1827 38.0068 33.4268 38.3288 33.7535C38.7256 34.1561 38.9636 34.6179 39.0428 35.139C39.1221 35.6449 39.0357 36.1194 38.7836 36.5626C39.041 36.4287 39.3282 36.3403 39.6454 36.2974C39.9625 36.2544 40.2754 36.2605 40.5843 36.3155C40.9007 36.363 41.2018 36.4557 41.4874 36.5936C41.7806 36.7239 42.0395 36.9031 42.2641 37.131C42.6235 37.4957 42.892 37.9125 43.0697 38.3814C43.2398 38.8427 43.3193 39.3185 43.3082 39.8087C43.2971 40.2989 43.1918 40.7771 42.9923 41.2433C42.8004 41.702 42.5145 42.1185 42.1347 42.4929C41.7624 42.8598 41.3418 43.1396 40.8727 43.3323C40.3962 43.5174 39.9165 43.6157 39.4337 43.6273C38.951 43.6238 38.4765 43.5298 38.0102 43.3454C37.5439 43.161 37.131 42.8865 36.7716 42.5218Z" fill="#39281C"/>
<path d="M46.017 38.2354L42.6771 25.8494L43.9394 24.8663L55.156 31.1172L53.5403 32.3757L50.3648 30.5901L46.7042 33.4413L47.6201 36.9868L46.017 38.2354ZM46.1528 31.6398L48.69 29.6637L44.8518 27.3396L46.1528 31.6398Z" fill="#39281C"/>
<path d="M56.4038 30.2886L50.2778 20.1752L51.8653 19.2137L54.5677 23.675L55.4919 17.0169L57.4352 15.8398L56.2512 23.3661L63.5611 25.9532L61.6041 27.1386L55.2474 24.7972L57.9912 29.327L56.4038 30.2886Z" fill="#39281C"/>
<path d="M64.733 25.1401L64.4229 12.3155L65.8822 11.6594L75.2983 20.39L73.4304 21.2298L70.7684 18.7426L66.5365 20.6453L66.5864 24.3069L64.733 25.1401ZM66.4277 18.7645L69.3609 17.4458L66.1826 14.2785L66.4277 18.7645Z" fill="#39281C"/>
<path d="M75.4742 16.5616L77.2743 15.9924C77.3547 16.2466 77.4828 16.4746 77.6584 16.6764C77.8309 16.868 78.0258 17.0245 78.2432 17.1459C78.4574 17.2572 78.6924 17.3283 78.9483 17.3592C79.2144 17.387 79.4746 17.3606 79.7288 17.2802C79.9933 17.1966 80.2213 17.0686 80.4129 16.8961C80.6044 16.7237 80.7559 16.5304 80.8671 16.3162C80.9854 16.0886 81.0549 15.8485 81.0756 15.5958C81.1034 15.3297 81.077 15.0696 80.9966 14.8153C80.7972 14.1847 80.4373 13.7895 79.9169 13.6297C79.4035 13.4564 78.7094 13.5081 77.8348 13.7846L77.3379 12.2133C78.0701 11.9818 78.5858 11.6845 78.885 11.3214C79.191 10.9449 79.2669 10.5126 79.1125 10.0244C79.0482 9.82102 78.9413 9.64226 78.7919 9.48813C78.6494 9.32063 78.4912 9.19167 78.3172 9.10127C78.1399 9.00069 77.9418 8.94027 77.7229 8.92002C77.5141 8.89654 77.308 8.91696 77.1046 8.98129C76.891 9.04882 76.7055 9.15222 76.5482 9.29147C76.3909 9.43072 76.2635 9.59405 76.1661 9.78145C76.0757 9.95548 76.0204 10.152 76.0001 10.3709C75.9767 10.5797 75.9971 10.7858 76.0614 10.9892L74.307 11.544C74.1688 11.1067 74.1249 10.6674 74.1756 10.2263C74.2231 9.77498 74.3493 9.36031 74.5542 8.98228C74.7558 8.59407 75.0293 8.2559 75.3745 7.96775C75.7266 7.66621 76.1264 7.44469 76.5739 7.30319C77.0214 7.16168 77.4708 7.11466 77.9221 7.16213C78.3804 7.19622 78.7985 7.3157 79.1766 7.52059C79.5616 7.7121 79.9016 7.97375 80.1967 8.30555C80.4918 8.63735 80.7085 9.02191 80.8468 9.45923C81.0173 9.99826 81.0193 10.5178 80.853 11.0179C80.6937 11.5046 80.401 11.888 79.975 12.1681C80.2651 12.1659 80.5612 12.2177 80.8632 12.3236C81.1652 12.4295 81.4412 12.5771 81.6913 12.7665C81.9515 12.9527 82.1775 13.1721 82.3693 13.4247C82.5712 13.6741 82.7204 13.9514 82.8169 14.2565C82.9712 14.7447 83.0209 15.238 82.966 15.7364C82.9078 16.2246 82.7624 16.6846 82.5297 17.1161C82.297 17.5477 81.9858 17.9258 81.5962 18.2504C81.2168 18.5717 80.7728 18.8128 80.2643 18.9736C79.766 19.1312 79.2641 19.1892 78.7587 19.1476C78.2501 19.0959 77.7782 18.9655 77.3428 18.7563C76.9145 18.5338 76.5345 18.2344 76.203 17.8582C75.8715 17.482 75.6285 17.0498 75.4742 16.5616Z" fill="#39281C"/>
<path d="M84.9767 17.1123L87.6013 4.55523L89.1718 4.24945L96.3472 14.8984L94.337 15.2898L92.3128 12.2608L87.7583 13.1476L86.9713 16.7239L84.9767 17.1123ZM88.0816 11.2916L91.2383 10.677L88.8666 6.86804L88.0816 11.2916Z" fill="#39281C"/>
<path d="M100.157 14.5449L99.304 4.51709L96.9446 4.71777L96.7954 2.9641L103.348 2.4068L103.497 4.16047L101.153 4.35979L102.006 14.3876L100.157 14.5449Z" fill="#39281C"/>
<path d="M106.595 14.0126L106.732 2.18938L108.588 2.21087L108.533 6.96255L109.813 6.97738C110.25 6.98244 110.634 6.99755 110.964 7.02271C111.295 7.04787 111.588 7.08327 111.843 7.1289C112.109 7.17465 112.343 7.23603 112.545 7.31304C112.747 7.37938 112.938 7.4616 113.118 7.55969C113.627 7.84294 114.017 8.25281 114.288 8.78932C114.57 9.31529 114.707 9.90892 114.7 10.5702C114.692 11.2315 114.547 11.8112 114.263 12.3093C113.991 12.8075 113.597 13.2029 113.082 13.4957C112.888 13.6001 112.679 13.6884 112.454 13.7604C112.24 13.8326 112 13.8938 111.732 13.9441C111.465 13.9836 111.161 14.0121 110.819 14.0295C110.488 14.047 110.11 14.0533 109.683 14.0483L106.595 14.0126ZM108.471 12.2742L109.607 12.2874C110.077 12.2928 110.455 12.2865 110.744 12.2685C111.032 12.2505 111.299 12.2163 111.545 12.1658C111.941 12.0637 112.252 11.87 112.48 11.5846C112.707 11.2992 112.823 10.9432 112.828 10.5165C112.832 10.1539 112.735 9.83807 112.535 9.56907C112.346 9.3002 112.071 9.11033 111.71 8.99948C111.476 8.91143 111.199 8.84956 110.88 8.81385C110.56 8.76748 110.182 8.74177 109.744 8.7367L108.513 8.72244L108.471 12.2742Z" fill="#39281C"/>
<path d="M121.936 14.7059L123.884 3.04354L126.393 3.46269C127.866 3.70873 128.908 4.14225 129.518 4.76324C130.14 5.37547 130.363 6.20764 130.188 7.25972C130.093 7.82785 129.916 8.26882 129.659 8.58261C129.411 8.89817 129.03 9.14265 128.514 9.31607C129.17 9.72841 129.612 10.1863 129.842 10.6896C130.084 11.1842 130.143 11.7998 130.02 12.5362C129.832 13.6619 129.311 14.4509 128.457 14.903C127.603 15.3551 126.439 15.4581 124.966 15.2121L121.936 14.7059ZM124.057 13.2758L125.303 13.4841C126.208 13.6352 126.888 13.6135 127.342 13.419C127.798 13.214 128.077 12.8064 128.179 12.1962C128.27 11.6491 128.163 11.1879 127.859 10.8125C127.564 10.4389 127.117 10.202 126.517 10.1018L124.639 9.78812L124.057 13.2758ZM124.935 8.02061L126.592 8.29741C127.086 8.38001 127.48 8.32141 127.773 8.1216C128.067 7.91128 128.254 7.5694 128.333 7.09596C128.419 6.58044 128.313 6.18409 128.013 5.90691C127.725 5.62097 127.213 5.41649 126.477 5.29347L125.42 5.11684L124.935 8.02061Z" fill="#39281C"/>
<path d="M131.293 16.1948L134.687 4.86843L136.465 5.40121L135.101 9.95321L136.327 10.3206C137.962 10.8106 139.076 11.4396 139.67 12.2077C140.264 12.9758 140.384 13.9474 140.032 15.1224C139.686 16.277 139.042 17.0139 138.1 17.3329C137.159 17.652 135.875 17.5681 134.251 17.0812L131.293 16.1948ZM133.576 15.0417L134.664 15.3677C135.154 15.5147 135.595 15.6244 135.985 15.6968C136.386 15.7723 136.732 15.787 137.024 15.741C137.327 15.698 137.578 15.584 137.778 15.399C137.978 15.214 138.135 14.9325 138.248 14.5544C138.42 13.9822 138.305 13.4913 137.905 13.0818C137.507 12.662 136.797 12.299 135.776 11.9928L134.595 11.6391L133.576 15.0417ZM140.259 18.8817L143.653 7.55528L145.431 8.08805L142.037 19.4144L140.259 18.8817Z" fill="#39281C"/>
<path d="M145.249 20.6873L149.936 9.83207L155.503 12.2359L154.805 13.8518L150.942 12.1836L146.953 21.4231L145.249 20.6873Z" fill="#39281C"/>
<path d="M154.613 18.1442C155.044 17.3955 155.582 16.7821 156.227 16.304C156.877 15.8167 157.585 15.4738 158.352 15.2753C159.118 15.0768 159.907 15.0325 160.718 15.1424C161.543 15.2484 162.339 15.5223 163.106 15.9642C163.836 16.3847 164.441 16.9173 164.919 17.5619C165.406 18.2119 165.749 18.9202 165.947 19.6869C166.151 20.4444 166.201 21.2238 166.096 22.0253C166.006 22.8227 165.754 23.582 165.338 24.303C164.907 25.0517 164.367 25.6697 163.717 26.157C163.072 26.6351 162.371 26.976 161.614 27.1799C160.865 27.389 160.088 27.4459 159.281 27.3506C158.48 27.246 157.705 26.9781 156.956 26.5469C156.207 26.1157 155.585 25.5724 155.088 24.9172C154.601 24.2672 154.246 23.5582 154.024 22.7901C153.81 22.0273 153.749 21.2471 153.839 20.4496C153.934 19.6429 154.192 18.8744 154.613 18.1442ZM156.243 19.0646C155.94 19.5915 155.752 20.1419 155.68 20.7159C155.613 21.2806 155.652 21.8324 155.797 22.3714C155.942 22.9103 156.185 23.4073 156.526 23.8623C156.877 24.3226 157.315 24.7044 157.842 25.0079C158.369 25.3113 158.91 25.4937 159.466 25.5552C160.031 25.6219 160.575 25.5847 161.099 25.4436C161.624 25.3025 162.109 25.0587 162.555 24.7123C163.015 24.3619 163.397 23.9233 163.7 23.3964C164.009 22.8603 164.199 22.3053 164.271 21.7313C164.344 21.1573 164.312 20.6035 164.176 20.0699C164.04 19.5363 163.79 19.0412 163.425 18.5849C163.074 18.1246 162.631 17.7401 162.095 17.4313C161.587 17.1385 161.048 16.9634 160.477 16.9059C159.922 16.8444 159.379 16.8889 158.85 17.0393C158.32 17.1896 157.828 17.4354 157.373 17.7765C156.918 18.1176 156.541 18.547 156.243 19.0646Z" fill="#39281C"/>
<path d="M162.696 32.2483L165.197 29.0855L166.339 29.9885L175.907 24.7237L177.174 25.726L174.258 36.2502L175.388 37.1433L172.887 40.3062L171.871 39.5024L172.928 37.4423L165.486 31.5577L163.725 33.062L162.696 32.2483ZM167.857 31.1893L172.74 35.0495L174.917 27.2657L167.857 31.1893Z" fill="#39281C"/>
<path d="M175.063 39.3136L183.515 31.0444L184.813 32.371L181.302 35.8063L184.692 39.2715L188.203 35.8362L189.501 37.1628L181.05 45.4321L179.752 44.1054L183.434 40.5023L180.044 37.0371L176.361 40.6402L175.063 39.3136Z" fill="#39281C"/>
<path d="M187.547 43.6079C188.241 43.092 188.978 42.7427 189.759 42.56C190.549 42.3709 191.336 42.3375 192.118 42.4598C192.901 42.5821 193.642 42.8547 194.342 43.2775C195.058 43.7025 195.68 44.2702 196.208 44.9804C196.711 45.6563 197.054 46.3851 197.237 47.1665C197.426 47.9566 197.459 48.7428 197.337 49.5253C197.223 50.3014 196.959 51.0365 196.545 51.7304C196.146 52.4266 195.612 53.023 194.945 53.5198C194.252 54.0357 193.51 54.3882 192.72 54.5773C191.939 54.76 191.16 54.7945 190.384 54.6807C189.614 54.5755 188.878 54.319 188.175 53.9111C187.481 53.4968 186.877 52.9431 186.361 52.25C185.845 51.5569 185.489 50.8111 185.294 50.0125C185.105 49.2225 185.061 48.4308 185.162 47.6376C185.269 46.8529 185.522 46.1125 185.922 45.4164C186.33 44.7139 186.872 44.111 187.547 43.6079ZM188.678 45.1C188.19 45.4631 187.799 45.8936 187.505 46.3918C187.22 46.8835 187.037 47.4055 186.956 47.9578C186.875 48.51 186.9 49.0626 187.033 49.6157C187.171 50.1772 187.422 50.7019 187.785 51.1896C188.148 51.6773 188.573 52.0597 189.058 52.3367C189.55 52.6222 190.064 52.8044 190.602 52.8831C191.139 52.9619 191.681 52.9308 192.228 52.7899C192.789 52.6511 193.314 52.4002 193.802 52.0372C194.298 51.6678 194.693 51.2341 194.987 50.7359C195.281 50.2378 195.472 49.7169 195.559 49.1732C195.647 48.6295 195.613 48.0758 195.46 47.512C195.321 46.9505 195.067 46.4215 194.697 45.9252C194.347 45.4546 193.922 45.0797 193.422 44.8006C192.936 44.5236 192.421 44.3489 191.875 44.2765C191.329 44.2041 190.779 44.2341 190.226 44.3665C189.673 44.4989 189.157 44.7434 188.678 45.1Z" fill="#39281C"/>
<circle cx="206" cy="82" r="5" fill="#39281C"/>
<circle cx="14" cy="143" r="5" fill="#39281C"/>
</svg>
