<svg width="36" height="36" viewBox="0 0 36 36" fill="none" xmlns="http://www.w3.org/2000/svg">
<path d="M25.5 31.125H10.5C3.885 31.125 1.875 29.115 1.875 22.5V21.75C1.875 21.135 2.385 20.625 3 20.625C4.44 20.625 5.625 19.44 5.625 18C5.625 16.56 4.44 15.375 3 15.375C2.385 15.375 1.875 14.865 1.875 14.25V13.5C1.875 6.885 3.885 4.875 10.5 4.875H25.5C32.115 4.875 34.125 6.885 34.125 13.5V15C34.125 15.615 33.615 16.125 33 16.125C31.56 16.125 30.375 17.31 30.375 18.75C30.375 20.19 31.56 21.375 33 21.375C33.615 21.375 34.125 21.885 34.125 22.5C34.125 29.115 32.115 31.125 25.5 31.125ZM4.125 22.74C4.155 27.9 5.22 28.875 10.5 28.875H25.5C30.51 28.875 31.725 27.99 31.86 23.49C29.715 22.98 28.125 21.045 28.125 18.75C28.125 16.455 29.73 14.52 31.875 14.01V13.5C31.875 8.145 30.855 7.125 25.5 7.125H10.5C5.22 7.125 4.155 8.1 4.125 13.26C6.27 13.77 7.875 15.705 7.875 18C7.875 20.295 6.27 22.23 4.125 22.74Z" fill="#523424"/>
<path d="M22.5003 23.8198C21.6603 23.8198 20.9853 23.1448 20.9853 22.3198C20.9853 21.4948 21.6603 20.8198 22.4853 20.8198C23.3103 20.8198 23.9853 21.4948 23.9853 22.3198C23.9853 23.1448 23.3403 23.8198 22.5003 23.8198Z" fill="#523424"/>
<path d="M13.5004 16.3199C12.6604 16.3199 11.9854 15.6449 11.9854 14.8198C11.9854 13.9948 12.6604 13.3198 13.4854 13.3198C14.3104 13.3198 14.9854 13.9948 14.9854 14.8198C14.9854 15.6449 14.3404 16.3199 13.5004 16.3199Z" fill="#523424"/>
<path d="M12.9455 24.6451C12.6605 24.6451 12.3755 24.5401 12.1505 24.3151C11.7155 23.8801 11.7155 23.1601 12.1505 22.7251L22.2455 12.6302C22.6805 12.1952 23.4005 12.1952 23.8355 12.6302C24.2705 13.0652 24.2705 13.7852 23.8355 14.2202L13.7405 24.3151C13.5305 24.5401 13.2305 24.6451 12.9455 24.6451Z" fill="#523424"/>
</svg>
