<svg width="36" height="36" viewBox="0 0 36 36" fill="none" xmlns="http://www.w3.org/2000/svg">
<path d="M19.5 22.125H3C2.385 22.125 1.875 21.615 1.875 21V9C1.875 5.07 5.07 1.875 9 1.875H22.5C23.115 1.875 23.625 2.385 23.625 3V18C23.625 20.28 21.78 22.125 19.5 22.125ZM4.125 19.875H19.5C20.535 19.875 21.375 19.035 21.375 18V4.125H9C6.315 4.125 4.125 6.315 4.125 9V19.875Z" fill="#523424"/>
<path d="M28.5 31.125H27C26.385 31.125 25.875 30.615 25.875 30C25.875 28.965 25.035 28.125 24 28.125C22.965 28.125 22.125 28.965 22.125 30C22.125 30.615 21.615 31.125 21 31.125H15C14.385 31.125 13.875 30.615 13.875 30C13.875 28.965 13.035 28.125 12 28.125C10.965 28.125 10.125 28.965 10.125 30C10.125 30.615 9.615 31.125 9 31.125H7.5C4.395 31.125 1.875 28.605 1.875 25.5V21C1.875 20.385 2.385 19.875 3 19.875H19.5C20.535 19.875 21.375 19.035 21.375 18V7.5C21.375 6.885 21.885 6.375 22.5 6.375H25.26C26.745 6.375 28.11 7.17001 28.845 8.46001L31.41 12.945C31.605 13.29 31.605 13.725 31.41 14.07C31.215 14.415 30.84 14.625 30.435 14.625H28.5C28.29 14.625 28.125 14.79 28.125 15V19.5C28.125 19.71 28.29 19.875 28.5 19.875H33C33.615 19.875 34.125 20.385 34.125 21V25.5C34.125 28.605 31.605 31.125 28.5 31.125ZM27.975 28.875H28.5C30.36 28.875 31.875 27.36 31.875 25.5V22.125H28.5C27.06 22.125 25.875 20.94 25.875 19.5V15C25.875 13.56 27.045 12.375 28.5 12.375L26.895 9.57C26.565 8.985 25.935 8.625 25.26 8.625H23.625V18C23.625 20.28 21.78 22.125 19.5 22.125H4.125V25.5C4.125 27.36 5.64 28.875 7.5 28.875H8.02501C8.52001 27.15 10.11 25.875 12 25.875C13.89 25.875 15.48 27.15 15.975 28.875H20.04C20.535 27.15 22.125 25.875 24.015 25.875C25.905 25.875 27.48 27.15 27.975 28.875Z" fill="#523424"/>
<path d="M12 34.125C9.72 34.125 7.875 32.28 7.875 30C7.875 27.72 9.72 25.875 12 25.875C14.28 25.875 16.125 27.72 16.125 30C16.125 32.28 14.28 34.125 12 34.125ZM12 28.125C10.965 28.125 10.125 28.965 10.125 30C10.125 31.035 10.965 31.875 12 31.875C13.035 31.875 13.875 31.035 13.875 30C13.875 28.965 13.035 28.125 12 28.125Z" fill="#523424"/>
<path d="M24 34.125C21.72 34.125 19.875 32.28 19.875 30C19.875 27.72 21.72 25.875 24 25.875C26.28 25.875 28.125 27.72 28.125 30C28.125 32.28 26.28 34.125 24 34.125ZM24 28.125C22.965 28.125 22.125 28.965 22.125 30C22.125 31.035 22.965 31.875 24 31.875C25.035 31.875 25.875 31.035 25.875 30C25.875 28.965 25.035 28.125 24 28.125Z" fill="#523424"/>
<path d="M33 22.125H28.5C27.06 22.125 25.875 20.94 25.875 19.5V15C25.875 13.56 27.06 12.375 28.5 12.375H30.435C30.84 12.375 31.215 12.585 31.41 12.945L33.975 17.445C34.065 17.61 34.125 17.805 34.125 18V21C34.125 21.615 33.615 22.125 33 22.125ZM28.5 14.625C28.29 14.625 28.125 14.79 28.125 15V19.5C28.125 19.71 28.29 19.875 28.5 19.875H31.875V18.3L29.775 14.625H28.5Z" fill="#523424"/>
</svg>
