<svg width="36" height="36" viewBox="0 0 36 36" fill="none" xmlns="http://www.w3.org/2000/svg">
<path d="M12 8.625C11.385 8.625 10.875 8.115 10.875 7.5V3C10.875 2.385 11.385 1.875 12 1.875C12.615 1.875 13.125 2.385 13.125 3V7.5C13.125 8.115 12.615 8.625 12 8.625Z" fill="#523424"/>
<path d="M24 8.625C23.385 8.625 22.875 8.115 22.875 7.5V3C22.875 2.385 23.385 1.875 24 1.875C24.615 1.875 25.125 2.385 25.125 3V7.5C25.125 8.115 24.615 8.625 24 8.625Z" fill="#523424"/>
<path d="M12.75 21.7498C12.36 21.7498 11.97 21.5848 11.685 21.3148C11.415 21.0298 11.25 20.6548 11.25 20.2498C11.25 20.0548 11.295 19.8598 11.37 19.6798C11.445 19.4998 11.55 19.335 11.685 19.185C12.24 18.63 13.245 18.63 13.815 19.185C14.085 19.47 14.25 19.8598 14.25 20.2498C14.25 20.3398 14.235 20.445 14.22 20.55C14.205 20.64 14.175 20.7298 14.13 20.8198C14.1 20.9098 14.055 20.9998 13.995 21.0898C13.935 21.1648 13.875 21.2398 13.815 21.3148C13.53 21.5848 13.14 21.7498 12.75 21.7498Z" fill="#523424"/>
<path d="M18 21.7502C17.805 21.7502 17.61 21.7052 17.43 21.6302C17.235 21.5552 17.085 21.4502 16.935 21.3152C16.665 21.0302 16.5 20.6552 16.5 20.2502C16.5 20.0552 16.545 19.8602 16.62 19.6802C16.695 19.5002 16.8 19.3352 16.935 19.1852C17.085 19.0502 17.235 18.9452 17.43 18.8702C17.985 18.6452 18.645 18.7652 19.065 19.1852C19.335 19.4702 19.5 19.8602 19.5 20.2502C19.5 20.3402 19.485 20.4452 19.47 20.5502C19.455 20.6402 19.425 20.7302 19.38 20.8202C19.35 20.9102 19.305 21.0001 19.245 21.0901C19.2 21.1651 19.125 21.2402 19.065 21.3152C18.78 21.5852 18.39 21.7502 18 21.7502Z" fill="#523424"/>
<path d="M12.75 27C12.555 27 12.36 26.955 12.18 26.88C11.985 26.805 11.82 26.7 11.685 26.565C11.55 26.43 11.445 26.265 11.37 26.07C11.295 25.89 11.25 25.695 11.25 25.5C11.25 25.305 11.295 25.11 11.37 24.93C11.445 24.735 11.55 24.57 11.685 24.435C11.82 24.3 11.985 24.195 12.18 24.12C12.54 23.97 12.96 23.955 13.32 24.12C13.515 24.195 13.68 24.3 13.815 24.435C13.95 24.57 14.055 24.735 14.13 24.93C14.205 25.11 14.25 25.305 14.25 25.5C14.25 25.695 14.205 25.89 14.13 26.07C14.055 26.265 13.95 26.43 13.815 26.565C13.68 26.7 13.515 26.805 13.32 26.88C13.14 26.955 12.945 27 12.75 27Z" fill="#523424"/>
<path d="M30.75 14.7598H5.25C4.635 14.7598 4.125 14.2498 4.125 13.6348C4.125 13.0198 4.635 12.5098 5.25 12.5098H30.75C31.365 12.5098 31.875 13.0198 31.875 13.6348C31.875 14.2498 31.365 14.7598 30.75 14.7598Z" fill="#523424"/>
<path d="M27 35.625C25.245 35.625 23.58 34.995 22.305 33.84C21.765 33.39 21.285 32.82 20.895 32.16C20.235 31.08 19.875 29.805 19.875 28.5C19.875 24.57 23.07 21.375 27 21.375C29.04 21.375 30.99 22.26 32.34 23.79C33.495 25.11 34.125 26.775 34.125 28.5C34.125 29.805 33.765 31.08 33.09 32.175C31.83 34.305 29.49 35.625 27 35.625ZM27 23.625C24.315 23.625 22.125 25.815 22.125 28.5C22.125 29.385 22.365 30.255 22.83 31.005C23.085 31.455 23.415 31.83 23.775 32.145C24.675 32.955 25.8 33.375 27 33.375C28.725 33.375 30.285 32.49 31.17 31.02C31.635 30.255 31.875 29.4 31.875 28.5C31.875 27.33 31.44 26.19 30.66 25.275C29.73 24.225 28.395 23.625 27 23.625Z" fill="#523424"/>
<path d="M26.1449 31.11C25.8599 31.11 25.5749 31.005 25.3499 30.78L23.8649 29.295C23.4299 28.86 23.4299 28.1401 23.8649 27.7051C24.2999 27.2701 25.0199 27.2701 25.4549 27.7051L26.1749 28.4251L28.5749 26.2051C29.0249 25.7851 29.7449 25.8151 30.1649 26.2651C30.5849 26.7151 30.5549 27.4351 30.1049 27.8551L26.9099 30.8101C26.6849 31.0051 26.4149 31.11 26.1449 31.11Z" fill="#523424"/>
<path d="M23.055 34.125H12C6.525 34.125 3.375 30.975 3.375 25.5V12.75C3.375 7.275 6.525 4.125 12 4.125H24C29.475 4.125 32.625 7.275 32.625 12.75V24.54C32.625 25.005 32.34 25.425 31.89 25.59C31.455 25.755 30.96 25.635 30.645 25.275C29.715 24.225 28.38 23.625 26.985 23.625C24.3 23.625 22.11 25.815 22.11 28.5C22.11 29.385 22.35 30.255 22.815 31.005C23.07 31.455 23.4 31.83 23.76 32.145C24.12 32.445 24.255 32.94 24.09 33.39C23.955 33.825 23.535 34.125 23.055 34.125ZM12 6.375C7.71 6.375 5.625 8.46 5.625 12.75V25.5C5.625 29.79 7.71 31.875 12 31.875H20.73C20.175 30.855 19.875 29.7 19.875 28.5C19.875 24.57 23.07 21.375 27 21.375C28.185 21.375 29.355 21.675 30.375 22.23V12.75C30.375 8.46 28.29 6.375 24 6.375H12Z" fill="#523424"/>
</svg>
