<svg width="202" height="48" viewBox="0 0 202 48" fill="none" xmlns="http://www.w3.org/2000/svg">
<g clip-path="url(#clip0_232_2832)">
<path d="M41.6048 13.7204C41.5795 13.2456 41.2921 13.029 41.2668 12.5625H40.5906C40.4639 13.4289 40.9456 13.6454 41.6048 13.7204Z" fill="white"/>
<path d="M39.4102 17.5201C38.7932 17.8534 38.0749 18.0783 38.0664 19.0113C38.9369 17.9283 41.185 18.3032 41.7766 19.3445C41.5231 18.4531 40.2638 17.3452 39.9257 18.0116C39.6299 17.9866 40.137 17.4618 39.4102 17.5201Z" fill="white"/>
<path d="M41.7945 22.684C42.1749 21.7593 42.6228 19.885 40.755 19.6934V20.3598C39.6056 20.668 37.1209 19.8516 36.0391 20.8679C36.1912 20.7097 36.4278 21.9259 36.0813 21.726C36.5715 22.0592 37.3744 21.726 37.8899 22.0342C38.8872 22.584 38.2956 24.0835 40.0789 24.0252C40.1549 23.7086 40.5606 23.7253 40.4085 23.2004C40.2141 23.1755 39.9268 23.2254 39.8929 23.0338C40.586 22.7673 40.9156 22.3341 41.7945 22.684Z" fill="white"/>
<path d="M54.5791 23.184C50.4294 24.8084 45.7557 26.5744 41.082 27.1659C41.1834 28.5571 42.4343 28.8236 42.9329 29.8233C42.8653 29.3568 42.9921 28.8819 43.271 28.4987C47.3699 27.1159 50.8435 25.1166 54.7228 23.5172C54.765 23.3089 55.0017 23.1756 54.5791 23.184Z" fill="white"/>
<path d="M45.6461 13.5542C45.6122 13.7458 45.4601 13.8124 45.308 13.8874C45.2573 13.5875 45.8235 12.8294 45.477 13.2293C45.1812 13.3793 45.1981 13.8374 44.8009 13.8874C44.877 13.6125 45.5869 13.1377 45.139 12.8878C45.1728 13.2626 44.5643 13.8541 44.4628 13.5542C46.2208 10.7552 42.426 15.087 40.5921 13.8874C40.8541 14.2956 40.0174 14.3956 40.0765 14.054C40.7188 13.8541 40.0765 12.9044 39.9075 12.7295C39.6455 13.0294 39.6286 13.5542 38.9018 13.3876C39.0454 13.096 39.4596 12.8794 38.9018 12.7295C38.4369 12.9877 38.775 12.8961 37.5495 13.0627C37.6087 13.6542 37.82 13.8541 38.0651 13.8874C37.6509 14.3123 37.5073 14.9953 36.7128 15.0453C36.6199 14.4955 36.3917 13.9874 36.0367 13.5542C35.5212 13.4292 35.7155 14.0124 35.1915 13.8874C34.7521 13.6542 33.9661 12.8961 33.6787 13.0627C34.0168 13.5708 34.9126 13.5042 35.0225 14.2206C34.3971 14.5039 34.1943 14.3539 33.6787 14.5538C34.1182 14.5039 34.2281 14.7871 34.1943 15.2203C33.7801 15.2203 33.6787 14.962 33.3576 14.887C34.507 15.7451 35.7832 16.4782 36.3917 17.8777C37.5918 17.6277 38.6989 17.0529 39.5863 16.2199C39.8061 15.4618 39.1638 14.5039 39.7554 14.3956C40.7949 16.0366 43.1529 15.7951 42.7894 18.5441C43.5501 17.961 43.9642 17.0363 44.4713 16.2199C43.8628 15.8284 42.6373 16.7281 42.7894 15.3952C43.9896 15.7701 45.8658 14.5622 45.6461 13.5542ZM24.7624 17.2029C24.5258 16.6947 23.9849 16.5365 23.7567 16.045H23.9257C23.9764 15.7034 23.4355 16.0783 23.4102 16.2116C23.782 16.7614 26.3428 18.1942 24.7624 17.2029Z" fill="white"/>
<path d="M23.9177 16.0457C23.9177 16.2456 24.1628 16.1456 23.9177 16.0457V16.0457ZM24.0868 17.3785C23.2501 17.037 23.5712 16.079 22.7345 16.5538C23.0134 16.7287 22.1514 17.1869 22.0584 17.5535C21.6866 16.8704 21.7119 17.6118 22.2274 17.7201C22.5317 16.862 23.1064 17.4202 23.0641 16.7204C23.2923 16.9537 23.7487 17.795 24.0868 17.3785ZM26.7828 14.8794C26.4025 14.8044 25.9377 13.9547 25.608 14.3712C25.9208 14.4129 25.5151 14.6462 25.7771 14.7045C25.9968 14.1297 26.6138 15.4125 26.7828 14.8794ZM32.851 15.046C32.3692 15.046 31.972 14.163 31.6762 14.5379C32.0565 14.6128 32.3777 15.6041 32.851 15.046ZM26.4447 15.5458C25.9292 15.3792 25.4052 14.3712 24.9319 14.7211C25.4052 14.9044 26.1236 15.7458 26.4447 15.5458ZM25.5996 15.879C25.1601 15.5875 24.7629 15.1543 24.7629 14.8877C24.7629 15.1043 24.4671 15.0377 24.4248 15.2209C24.6615 15.4792 25.8785 16.2039 25.5996 15.879ZM32.5129 16.0457C32.2763 15.6625 31.4311 15.021 31.1607 15.2209C31.2959 15.6458 31.9974 15.5042 31.9974 16.0457C31.2367 16.1873 31.0001 14.9377 30.4846 15.3792C30.7804 15.4209 30.8649 15.6625 30.8226 16.0457C31.6002 16.104 31.7945 16.2456 32.5129 16.0457ZM25.27 16.5455C24.7798 16.4039 24.3403 15.3709 23.9177 15.7208C24.3488 15.9124 24.9404 16.8037 25.27 16.5455ZM31.1607 16.5455C30.6029 16.3789 30.3747 15.879 29.8084 15.7208C29.9859 16.1623 30.8311 16.812 31.1607 16.5455ZM29.1408 16.7121C29.6056 16.7454 30.062 16.862 30.493 17.0453C30.4339 16.4372 29.4197 15.8957 29.1408 16.0207C29.6479 16.1539 28.9802 16.3955 29.1408 16.7121ZM1.34379 36.2968C0.828247 36.1552 0.701475 36.4384 0.50709 36.63C0.498639 36.4468 0.557799 36.2635 0.67612 36.1219C-0.0591605 36.3718 0.253545 36.6717 0 37.4547C0.701475 37.4214 0.828247 37.9629 1.51282 37.9629C1.7072 36.9382 3.41441 36.5217 3.19467 35.6387C2.40868 35.2388 1.08179 35.4888 1.34379 36.2968ZM19.7596 8.0235C19.8103 7.97352 19.861 7.92353 19.9117 7.87355L19.7596 8.0235ZM38.8346 11.4723C38.9783 10.2227 35.8935 9.25639 34.7526 9.03147C32.9693 8.6816 31.6002 7.82357 29.8676 7.58199C27.6702 7.2821 21.9063 6.0492 19.9202 7.86522C20.8668 6.8989 24.4586 7.95686 25.9377 8.01517C27.1124 8.05682 31.0593 7.84856 31.1269 9.29805C32.4707 9.31471 33.806 9.56462 35.0653 10.0478C36.2907 10.5309 37.5331 11.2224 38.8346 11.4723Z" fill="white"/>
<path d="M48.59 27.9416C46.7983 36.5219 39.5638 42.953 30.732 43.836C30.6728 42.2866 30.7235 40.7371 30.8841 39.1877C31.163 37.9131 31.4419 36.7385 32.6758 36.4636C34.4845 36.0721 36.7241 38.0381 39.2427 36.9718C40.6963 36.0221 40.5695 33.523 42.6148 33.1565C43.0458 30.9822 40.4428 31.8069 39.7497 31.1655C41.0259 31.0655 42.0063 31.2738 42.6148 31.8319C43.1303 31.532 43.3754 30.4241 42.7838 30.0076C41.5922 30.4408 41.2288 29.8576 40.2568 29.6744C40.1301 30.0492 39.792 30.0492 39.2173 30.3408C39.6145 29.641 39.4201 29.7577 38.8877 29.3411C39.3694 29.1829 38.9976 28.7913 39.2173 28.6747C39.2173 28.7747 39.2427 28.8746 39.3863 28.8413C39.3103 28.4331 38.913 28.1666 38.4989 28.2415C38.3214 28.2749 38.1609 28.3665 38.0425 28.5081C37.8313 27.975 38.5581 28.3831 38.3806 27.8417C37.8651 27.6917 38.1524 28.3915 37.7045 28.3498C36.9269 27.8917 35.8451 28.2749 36.0226 27.1919C35.9719 27.5834 35.3972 27.1919 35.3465 27.0253C35.8113 26.5838 35.1521 26.6588 35.1775 26.2006C35.3972 26.2006 35.4141 26.4172 35.693 26.3672C35.6677 26.1339 35.7268 25.9007 35.8621 25.7091C35.5324 25.6591 35.5324 25.934 35.3465 26.0423C35.5324 25.4092 35.7944 25.5342 35.1775 25.2176C35.3803 25.026 35.5578 24.8011 35.693 24.5512C34.8141 24.4762 35.0845 23.2683 34.5183 22.8934C34.9662 22.0687 35.5916 21.9771 35.8621 21.4023C35.7184 21.7022 35.1859 20.4943 36.0311 20.5776C35.1352 20.311 35.9466 18.8615 36.2001 18.2534C35.9635 17.662 35.7606 17.0288 35.1606 16.7623C34.6788 16.8872 33.9013 17.2704 33.6478 17.0955C33.614 17.3287 33.6731 17.5703 33.8168 17.7619C33.7154 17.7119 33.166 17.3537 33.1491 17.7619C33.5548 18.2701 33.8929 18.8282 34.1549 19.4197C33.1491 18.5283 32.9632 17.637 31.9659 17.4287C32.0335 17.7786 32.1434 18.1118 32.304 18.4283C32.0082 17.9202 31.7884 18.8865 31.6279 18.4283C32.118 18.52 31.3743 17.7869 31.4588 18.2617C32.0589 18.6533 30.6728 18.47 30.6221 18.7699C30.7151 18.7699 30.8165 18.9032 30.6221 18.9365C30.3348 18.6116 30.2334 18.1118 29.7854 17.9369C29.8699 18.5117 30.0474 19.0698 30.301 19.5946C29.946 19.3863 29.6502 19.1364 29.2868 18.9282C29.1262 19.2364 29.8023 19.478 29.2868 19.5946C29.253 19.4197 29.0079 19.1947 28.9487 19.428C29.1431 19.4613 29.1347 19.6862 29.1178 19.9361C28.0782 19.9695 27.943 20.236 27.2669 20.6026C27.1401 20.1777 27.0978 19.6612 26.7513 19.4447C26.3034 19.9528 26.7936 20.5109 26.9204 20.9358C26.202 20.7692 25.5597 20.7858 25.4075 20.4276C23.5989 20.2527 23.0665 22.2103 22.2044 22.4186C22.5256 21.4523 23.1087 20.5942 23.8947 19.9278C22.8552 19.4613 23.0749 19.2947 22.3819 18.9282C22.5678 18.9365 22.7538 18.8782 22.8975 18.7616C23.1848 19.1281 24.4525 19.378 23.7426 19.7612C24.1821 20.1694 24.5709 19.5946 25.2554 19.7612C25.3061 19.4363 25.0272 19.4363 24.9174 19.2531C26.0161 20.1194 26.2781 18.4617 27.6134 18.595C27.6134 17.9202 28.3233 17.9618 28.4501 17.4287C28.2726 18.0118 29.0163 17.5703 29.1262 17.4287C28.636 17.1871 27.419 16.3707 27.2753 16.2708C27.4359 16.7789 28.0951 16.7789 28.112 17.4287C27.8331 17.7702 27.3176 17.8619 26.9373 18.0951C26.9373 17.4787 26.3034 16.8789 26.4217 17.1038C26.4217 17.2871 26.6668 17.3621 26.4217 17.437C26.3203 17.2954 25.5174 16.9289 25.9062 17.2704C26.1597 17.5203 26.6161 17.5703 26.7429 17.9369C26.3203 18.1118 26.1513 17.2204 25.9062 17.7702C26.109 18.0451 26.4133 18.2284 26.7429 18.2784C26.6753 18.4783 26.5654 18.6533 26.4048 18.7866C26.202 18.7199 26.0245 18.6033 25.8893 18.4533C26.202 18.1618 25.847 17.9452 25.5512 17.7952V18.0451C25.061 18.4117 25.8132 17.8369 25.7203 18.2118C25.5512 18.2118 25.5174 18.345 25.3822 18.3784C24.799 18.3284 25.3822 17.9285 25.0441 17.8702C24.8328 18.3034 24.2412 17.9452 24.2074 18.2034C24.4525 18.5117 25.0779 18.445 25.0441 19.0281C24.4441 18.52 23.5313 18.3034 23.1933 17.537C23.4214 17.537 23.7088 18.2118 23.8694 17.7036C23.5398 17.437 23.0834 17.3787 22.6946 17.537C23.058 18.2867 24.7737 18.5616 24.5455 19.3613C23.9708 19.3947 24.5455 18.8032 23.8694 18.7032C23.5651 19.1448 24.6131 19.0281 24.0384 19.2114C23.2778 18.9115 22.796 18.3367 22.1875 17.8869C21.9678 18.3034 22.8552 18.395 22.3566 18.5533C22.3058 18.2034 21.9086 18.7949 21.6804 18.3867C21.1649 19.453 19.1281 20.1444 18.9844 20.211C18.4689 20.4776 16.1616 24.218 15.9503 22.0354C15.7982 20.461 18.5449 18.6449 19.6605 17.8785C19.4577 17.8119 19.2802 17.7036 19.145 17.5453C20.3451 17.3121 20.455 16.2791 21.672 15.546C21.5452 15.5127 21.3339 15.546 21.3339 15.3794C21.7565 15.3794 21.8495 15.0712 22.1706 15.3794C22.2213 15.0545 21.9424 15.0545 21.8326 14.8713C22.7115 14.9462 22.3481 14.1382 23.3454 13.705C22.8975 13.4135 23.1848 13.0469 22.6693 13.0469C22.9313 12.7137 23.6327 13.1719 23.1848 13.5551C23.6158 13.68 23.9708 12.922 23.7003 12.8886C23.2862 13.2802 22.7707 12.3805 22.3481 12.2222C22.196 12.7304 22.9059 12.4471 22.8636 12.8886C22.4918 13.0386 22.0861 13.0969 21.6889 13.0553C21.8748 13.1719 22.5594 13.6051 22.2044 13.7134C22.2044 13.4218 21.0804 12.922 21.5283 13.2052C22.3397 13.8883 21.5283 14.2881 21.5283 13.3718C20.9705 13.88 20.793 12.8637 20.5226 13.2052C20.8691 13.2552 20.8606 13.6467 21.0381 13.8633C20.2521 13.3885 20.9367 14.4964 20.362 14.5297C20.8775 14.2298 19.8127 13.9549 19.8465 14.1965C20.3282 14.9629 19.407 13.9216 19.3309 14.3631C19.6098 14.5297 19.7197 14.8046 19.5 15.0212C19.2633 14.9879 19.2211 14.7463 18.9844 14.688C18.5449 15.2961 18.0378 15.8543 17.4716 16.3541C17.8688 13.5134 20.455 12.772 20.5057 9.87305C20.1169 9.96468 19.7112 9.96468 19.3309 9.87305C19.4154 10.7061 18.2491 9.63147 18.8154 10.3812C18.3336 10.5228 18.3759 10.1479 17.9702 10.2146C17.9111 10.4978 18.2153 10.6394 17.9702 10.7227C17.7082 10.4395 17.3448 10.2646 16.9645 10.2146C15.925 10.5145 16.7194 11.814 16.1278 12.3722H15.4517C15.1812 13.5051 14.2769 14.4631 14.4375 15.5294C14.4882 15.8293 14.9277 16.0625 14.953 16.3541C14.953 16.4374 14.5389 16.5373 14.615 16.8622L14.6488 17.0039L14.615 17.0288C14.2769 17.2871 14.7418 17.8286 15.1305 18.1534V18.5283C14.7502 18.1534 14.2938 18.5283 13.9558 18.6949C13.567 18.2201 14.4375 16.8789 13.6177 16.5374C13.6177 16.7289 13.6515 17.0122 13.4487 17.0455C13.4318 16.9539 13.3473 16.8956 13.2543 16.9122C13.1867 16.9205 13.1275 16.9789 13.1191 17.0455C14.0741 17.7786 13.4064 20.2944 12.1133 20.3693C12.4852 21.0191 11.5978 21.394 11.2766 21.369C11.7668 22.4186 10.7273 22.3103 10.4399 22.5269C12.181 22.9434 11.4288 25.0843 10.609 26.009C10.0934 25.1426 9.9244 26.1756 9.56944 25.3509C9.56944 25.8007 9.29054 25.6841 9.56944 26.009C9.3328 25.9507 9.29054 25.8091 9.0539 26.009C9.00319 26.3339 9.28209 26.3339 9.39196 26.5171C8.93558 26.5171 9.0539 26.2422 8.71584 26.5171C8.63977 27.2002 9.16377 26.3589 9.23138 27.0253C8.96938 27.5001 8.44539 26.6754 8.19184 27.1919C8.34397 27.2419 8.92712 27.6417 8.5299 27.7001C8.13268 27.7584 8.15804 27.4002 7.69321 27.5335C10.0258 28.3832 7.98056 30.1575 7.86224 31.5154C7.62559 31.0489 7.27908 30.649 6.84806 30.3574C6.70438 30.8656 6.42548 30.1409 6.01136 30.3574C6.01136 30.9656 5.1493 30.9906 5.84233 31.3488C5.50427 31.6237 5.63104 31.3488 5.16621 31.3488C4.97182 31.8569 5.4282 31.757 5.50427 32.0152C4.98873 32.1152 4.98873 31.707 4.66757 32.0152C5.1155 32.7233 4.2788 32.3068 4.15203 32.8399C4.70983 32.8399 4.84505 33.2564 5.15776 33.498C4.74363 33.6479 4.64221 34.5726 4.15203 34.1644C4.2788 34.5893 3.49281 34.9308 3.983 35.1557C6.91567 30.7406 15.4686 31.8569 16.4405 25.5175C16.6602 26.7671 17.48 27.4168 17.1166 28.8413C16.2799 29.0163 16.0095 29.7493 16.1024 30.8406C15.7728 30.7906 15.7728 31.0655 15.5869 31.1738C15.5531 30.9322 15.6461 30.5574 15.4179 30.5074C15.3841 31.1405 15.1136 31.2655 15.0798 31.532C14.9108 31.532 14.877 31.3987 14.7418 31.3654C12.0542 33.498 15.6376 35.3057 17.2688 36.1804C17.142 36.6219 16.9307 37.0301 16.6349 37.3883L16.187 37.7132C15.9334 38.1713 15.5785 38.5629 15.1474 38.8711C14.8178 38.5795 14.5051 38.288 14.2009 37.9797C12.6965 36.4803 11.4457 34.7476 10.4907 32.8649L10.4146 32.8982C9.3328 33.2814 8.27636 33.7479 7.26218 34.2894C13.0177 45.9353 27.2753 50.7835 39.0905 45.1022C46.5448 41.5202 51.5734 34.3644 52.3594 26.2256L50.9987 26.8587C50.255 27.1836 49.4267 27.5668 48.59 27.9416Z" fill="white"/>
<path d="M6.22778 28.2656H6.33765C5.75449 27.4992 5.90662 26.4079 6.68416 25.8332C6.77713 25.7665 6.87009 25.7082 6.97151 25.6582C7.03067 25.5832 7.09828 25.5166 7.17435 25.4583C7.25041 25.3 7.35183 25.1501 7.4786 25.0251C7.58002 24.8002 7.72369 24.6086 7.90118 24.442L7.97724 24.3837C8.08711 24.1421 8.24769 23.9255 8.45052 23.7506C8.50968 18.0276 11.062 12.6045 15.4568 8.86417L15.5582 8.78086C23.9759 1.66672 36.6363 2.55807 43.9468 10.7802C44.1497 11.0134 44.3525 11.2467 44.5469 11.4799C44.9018 11.9214 45.2484 12.3713 45.5864 12.8378V12.8628C45.8738 13.2793 46.1358 13.7124 46.3893 14.154C46.5583 14.4539 46.7274 14.7537 46.8795 15.062C48.1388 17.5777 48.8487 20.3184 48.9586 23.1174C50.1164 22.7176 51.2658 22.2927 52.4068 21.8596C51.232 8.96413 39.6704 -0.55749 26.579 0.592103C13.4876 1.75003 3.82755 13.146 4.99386 26.0497C5.06992 26.8578 5.17979 27.6575 5.34037 28.4489C5.61927 28.3239 5.92352 28.2656 6.22778 28.2656Z" fill="white"/>
</g>
<g clip-path="url(#clip1_232_2832)">
<path d="M100.491 7.58398C98.3908 7.58398 99.5815 7.7686 98.2464 7.7686C97.6763 7.7686 96.8681 7.58398 95.6702 7.58398C95.432 7.58398 94.53 7.62659 94.53 8.52126C94.53 9.31652 95.2877 9.59344 95.8578 11.1485C96.5722 13.0727 96.666 16.7792 96.666 18.5614C96.666 21.6502 96.4279 24.8951 95.4104 24.8951C94.5516 24.8951 93.4042 22.6869 93.4042 17.3899V9.46563C93.4042 7.91771 92.8341 7.61239 92.1197 7.61239C90.3083 7.61239 91.0228 7.797 89.7815 7.797C88.9228 7.797 88.7856 7.61239 88.0135 7.61239C87.0176 7.61239 86.7578 8.17333 86.7578 8.69167C86.7578 9.57924 87.4289 9.48693 87.898 11.4183C88.7063 14.791 88.23 18.4975 89.0887 24.391C89.9475 30.2845 92.2279 31.52 93.8516 32.4217C94.097 32.5637 94.4217 32.6987 94.4217 32.9401C94.0537 34.3957 93.3176 35.7377 92.2712 36.8312C91.2248 37.9105 89.4063 38.5708 89.4063 39.4584C89.4063 40.5377 90.2578 40.488 90.6619 40.488C91.1382 40.4809 91.6217 40.4525 92.0908 40.3957C92.5671 40.3531 93.0867 40.3033 93.6135 40.3033C95.1867 40.3033 95.5691 40.488 96.1248 40.488C98.0805 40.488 99.8918 31.101 100.318 28.4738C101.313 22.0904 101.508 12.2917 101.508 9.28812C101.58 7.71179 100.917 7.58398 100.491 7.58398Z" fill="white"/>
<path d="M149.529 8.62138C149.529 8.24505 149.435 7.5918 148.432 7.5918C144.816 7.5918 148.237 7.91842 143.041 7.91842C138.704 7.91842 139.938 7.5918 137.838 7.5918C136.698 7.5918 136.582 8.20955 136.582 8.76339C136.582 9.18232 136.625 9.55865 136.625 9.99889C136.676 10.5598 136.676 11.1208 136.676 11.6888C136.69 12.5835 136.662 13.4782 136.582 14.3657C136.467 15.161 136.409 15.9634 136.395 16.7657C136.395 17.845 136.965 17.8876 137.246 17.8876C137.773 17.8876 137.917 17.3693 138.155 17C138.343 16.5669 138.776 16.29 139.252 16.2971C140.154 16.2971 140.248 17.0426 140.248 18.0367V35.6177C140.248 37.684 140.01 38.0887 139.678 38.9053C139.584 39.1822 139.151 40.4532 140.623 40.4532C141.193 40.4532 141.771 40.2686 142.962 40.2686C143.423 40.2615 143.885 40.2757 144.34 40.3183C144.758 40.3893 145.177 40.4319 145.596 40.4603C146.029 40.5029 146.411 40.1975 146.454 39.7715C146.462 39.7218 146.462 39.665 146.454 39.6153C146.382 39.0473 146.223 38.4934 145.978 37.9751C145.682 36.839 145.523 35.6745 145.509 34.5029V18.7113C145.509 16.858 145.884 16.2687 146.649 16.2687C147.097 16.2829 147.508 16.5172 147.746 16.8864C148.027 17.3551 148.129 17.8734 148.836 17.8734C149.168 17.8734 149.644 17.6888 149.644 16.8438C149.644 15.6083 149.406 14.9906 149.406 11.8237C149.456 9.37404 149.529 10.4036 149.529 8.62138Z" fill="white"/>
<path d="M166.905 31.8033V13.1218C166.905 9.8839 167.764 8.79751 167.764 8.05196C167.764 7.53361 167.049 7.58332 166.905 7.58332C164.329 7.58332 165.476 7.76793 163.809 7.76793C162.33 7.76793 163.239 7.58332 161.565 7.58332C160.807 7.58332 160.612 7.90994 160.612 8.20107C160.67 8.53479 160.8 8.85432 160.994 9.13834C161.326 9.74189 161.492 10.4235 161.464 11.1123C161.464 12.6602 161.038 13.5833 159.364 16.4661C158.793 17.446 157.213 20.4495 157.213 19.2353V12.9939C157.177 11.9289 157.343 10.8638 157.689 9.8484C157.978 9.23065 158.404 8.72651 158.404 8.20817C158.404 7.86734 158.13 7.59042 157.783 7.58332C157.754 7.58332 157.718 7.58332 157.689 7.59042C157.271 7.61172 156.852 7.66142 156.434 7.73243C155.806 7.79634 155.178 7.81764 154.55 7.78213C153.121 7.78213 153.295 7.59752 152.039 7.59752C151.757 7.59752 151.043 7.54782 151.043 8.21527C151.043 8.88272 151.902 8.73361 151.902 13.7111V32.137C151.945 33.9974 151.815 35.8577 151.519 37.6968C151.332 38.3571 151.187 39.0317 151.093 39.7133C151.093 40.4163 151.721 40.466 152.089 40.466C153.612 40.466 153.28 40.2814 154.666 40.2814C156.549 40.2814 155.431 40.466 157.242 40.466C158.101 40.466 158.288 39.9974 158.288 39.5784C158.288 38.9607 157.855 38.2648 157.574 37.4199C157.256 36.2696 157.112 35.0838 157.148 33.898C157.148 31.8814 157.956 30.3832 158.866 28.5016C160.872 24.5181 161.298 24.1773 161.485 24.1773C161.673 24.1773 161.68 24.369 161.68 24.5039C161.68 25.3915 161.579 25.4909 161.579 26.3572V33.8128C161.608 35.2329 161.464 36.6459 161.153 38.0305C160.93 38.5417 160.756 39.0814 160.634 39.6281C160.605 40.0684 160.937 40.4518 161.384 40.4802C161.435 40.4873 161.492 40.4802 161.543 40.4731C162.366 40.3666 163.196 40.3027 164.025 40.2885C164.596 40.2885 165.216 40.3382 165.793 40.3808C166.14 40.4376 166.493 40.466 166.84 40.4731C167.078 40.4731 167.792 40.4731 167.792 39.8198C167.684 39.0672 167.489 38.3287 167.222 37.6116C167.143 37.0009 166.905 35.6873 166.905 31.8033Z" fill="white"/>
<path d="M185.789 8.71297C185.854 8.15913 185.442 7.65499 184.879 7.59108C184.836 7.58398 184.785 7.58398 184.742 7.58398C183.84 7.58398 183.075 7.7686 181.74 7.7686C181.408 7.7757 181.076 7.7615 180.744 7.71889C180.282 7.66209 179.821 7.63369 179.359 7.62659C178.413 7.62659 178.312 8.24434 178.312 8.56386C178.312 8.88339 178.55 9.21711 178.832 9.79936C179.236 10.5165 179.453 11.3189 179.46 12.1425C179.46 13.9248 178.507 14.3508 177.988 14.3508C177.468 14.3508 176.364 14.1591 176.364 12.3343C176.371 11.5958 176.515 10.8644 176.79 10.1686C177.093 9.63605 177.288 9.0396 177.36 8.42895C177.36 8.05262 177.165 7.58398 176.407 7.58398C175.974 7.58398 175.498 7.726 173.896 7.726C171.702 7.726 171.753 7.58398 170.887 7.58398C169.84 7.58398 169.797 8.28694 169.797 8.66327C169.797 10.5875 170.793 10.8715 170.793 14.8053V33.0608C170.822 34.5732 170.663 36.0856 170.316 37.5625C170.086 38.6844 169.84 39.1105 169.84 39.4868C169.84 40.3318 170.41 40.3744 170.648 40.3744C171.413 40.3744 171.413 40.1897 173.275 40.1897C174.654 40.1897 175.043 40.3317 175.787 40.3317C176.068 40.3317 177.042 40.4312 177.042 39.4442C177.042 38.7412 176.097 37.7045 176.097 30.7176C176.097 23.965 176.378 22.0691 177.908 22.0691C179.438 22.0691 179.481 23.9224 179.481 26.1022V33.0466C179.481 37.314 178.716 36.888 178.716 39.4726C178.716 39.8489 178.716 40.3602 179.669 40.3602C181.098 40.3602 180.665 40.1755 182.296 40.1755C184.251 40.1755 182.628 40.3602 184.728 40.3602C185.204 40.3602 185.868 40.2181 185.868 39.3803C185.868 38.7625 185.536 38.1448 185.204 36.5614C184.843 34.6726 184.677 32.7555 184.728 30.8383V17.8443C184.648 10.5449 185.789 9.98397 185.789 8.71297Z" fill="white"/>
<path d="M80.6536 19.7396C79.766 19.7112 78.8855 19.8887 78.0773 20.2508C77.7959 20.4284 77.4928 20.5704 77.1752 20.6698C76.8433 20.6698 76.8433 20.0165 76.8433 19.8248V17.4319C76.8433 15.5006 77.3701 14.1941 79.5639 14.1941C80.4587 14.1941 81.3031 14.5704 81.902 15.2237C82.4721 15.8414 82.4216 16.6296 83.3309 16.6296C84.2402 16.6296 84.0453 15.742 84.0453 14.7763C84.0453 13.8106 83.9515 13.9314 83.9515 11.7302C83.9515 10.0402 84.0453 9.66392 84.0453 8.67694C84.0453 8.25801 83.9515 7.59766 83.0928 7.59766C82.566 7.59766 82.566 7.73967 81.3247 7.78227C80.8989 7.78227 78.5103 7.83197 77.9835 7.83197C72.7371 7.83197 73.2639 7.64026 71.7412 7.64026C71.4598 7.64026 70.8392 7.73257 70.8392 8.29351C70.8392 8.85445 71.0773 9.32309 71.2649 10.5941C71.4381 12.0426 71.5247 13.4982 71.5103 14.9538V33.2023C71.5031 34.736 71.3299 36.2555 70.9835 37.7466C70.7887 38.8401 70.5 39.3513 70.5 39.7277C70.5 40.3809 71.2144 40.4306 71.4526 40.4306C72.0227 40.4306 72.5495 40.3383 73.1196 40.2886C73.899 40.2247 74.6783 40.2105 75.4577 40.2389C78.2288 40.2389 77.4639 40.4235 79.3185 40.4235C84.3773 40.4235 85.3732 36.8591 85.3732 34.3739V25.1076C85.3732 20.2082 82.2773 19.7396 80.6536 19.7396ZM80.134 33.394C80.134 34.0117 79.9897 35.4602 78.366 35.4602C77.8897 35.4602 76.7423 35.3679 76.7423 33.11V27.8058C76.7423 25.6473 77.8392 25.6899 78.366 25.6899C78.8855 25.6899 80.134 25.6899 80.134 28.1325V33.394Z" fill="white"/>
<path d="M111.402 31.329C113.979 30.8603 117.839 29.2627 117.839 19.5917C117.847 10.503 115.321 7.5918 105.499 7.5918C103.876 7.5918 103.876 8.47937 103.876 8.9054C103.876 10.4036 104.215 11.0711 104.215 17.1633V29.5964C104.215 37.7621 103.5 36.4414 103.5 39.4023C103.486 39.9632 103.941 40.4319 104.511 40.4461C104.568 40.4461 104.626 40.4461 104.684 40.439C105.066 40.4106 105.456 40.368 105.831 40.297C106.387 40.2331 106.943 40.2189 107.498 40.2473C108.068 40.2473 108.646 40.2473 109.216 40.297C109.779 40.3467 110.262 40.439 110.789 40.439C111.236 40.51 111.655 40.2189 111.727 39.7786C111.734 39.7147 111.742 39.6579 111.734 39.594C111.691 39.0047 111.424 38.4508 110.977 38.0461C109.894 36.5408 109.353 34.723 109.454 32.884C109.447 31.471 109.49 31.6414 111.402 31.329ZM110.645 16.3184C111.597 16.3184 112.6 18.0083 112.6 21.1468C112.6 25.0095 111.698 26.3515 110.789 26.3515C109.36 26.3515 109.454 23.4402 109.454 21.3314C109.454 19.2296 109.31 16.3184 110.645 16.3184Z" fill="white"/>
<path d="M135.021 37.9886C134.862 37.4702 134.624 36.2489 134.458 35.4466C133.599 31.2217 133.744 29.3472 133.08 21.3307C132.026 8.90469 133.029 7.58398 130.691 7.58398C127.639 7.58398 129.594 7.7686 127.068 7.7686C125.596 7.7686 124.781 7.62659 124.059 7.62659C121.577 7.62659 122.681 10.0976 122.103 16.7295C120.292 38.4501 119.289 37.2288 119.289 39.5933C119.289 40.3389 119.765 40.4383 120.148 40.4383C120.53 40.4099 120.913 40.3673 121.288 40.2962C121.634 40.2536 121.988 40.2394 122.334 40.2465C124.146 40.2465 122.811 40.4312 124.622 40.4312C125.668 40.4312 125.957 39.7282 125.531 38.8832C125.235 38.4146 125.055 37.8892 125.005 37.3353C125.005 36.5827 125.293 34.985 127.198 34.985C128.865 34.985 129.349 36.1069 129.349 37.1436C129.349 38.5992 128.634 38.3791 128.634 39.4442C128.642 39.9838 129.089 40.417 129.63 40.4241C129.969 40.3957 130.301 40.3531 130.626 40.282C131.211 40.2181 131.802 40.2039 132.394 40.2323C134.278 40.2323 133.39 40.417 134.451 40.417C135.353 40.417 135.497 39.7992 135.497 39.5294C135.367 39.011 135.209 38.4998 135.021 37.9886ZM127.429 30.0146C127.357 30.0217 127.278 30.0217 127.206 30.0217C125.683 30.0217 125.87 28.5661 125.87 27.1105C125.87 26.0312 126.347 17.3046 127.299 17.3046C128.014 17.3046 128.555 21.0537 128.555 24.5259L128.541 28.6513C128.62 29.333 128.115 29.9436 127.429 30.0146Z" fill="white"/>
<path d="M195.136 7.21484C188.18 7.21484 188.18 14.2941 188.18 17.1627V33.0396C188.18 38.1094 190.756 40.7792 194.949 40.7792C201.227 40.7792 201.429 34.0265 201.429 32.5709V14.8408C201.429 12.2775 200.902 7.21484 195.136 7.21484ZM196.183 17.1201V32.1307C196.183 32.7839 196.139 34.5733 194.754 34.5733C193.498 34.5733 193.426 33.1248 193.426 32.3224V17.3473C193.426 16.3675 193.332 14.7201 194.804 14.7201C196.277 14.7201 196.183 16.3178 196.183 17.1201Z" fill="white"/>
</g>
<defs>
<clipPath id="clip0_232_2832">
<rect width="54.8333" height="47" fill="white" transform="translate(0 0.5)"/>
</clipPath>
<clipPath id="clip1_232_2832">
<rect width="130.929" height="33.5714" fill="white" transform="translate(70.5 7.21484)"/>
</clipPath>
</defs>
</svg>
