<svg width="31" height="24" viewBox="0 0 31 24" fill="none" xmlns="http://www.w3.org/2000/svg">
<g clip-path="url(#clip0_232_2896)">
<path d="M30.3894 23.6738V23.7355H30.4473C30.4581 23.7357 30.4688 23.733 30.4783 23.7277C30.482 23.725 30.4851 23.7215 30.4871 23.7173C30.4891 23.7132 30.4901 23.7087 30.4899 23.7041C30.4901 23.6996 30.4891 23.6951 30.4871 23.6911C30.485 23.687 30.482 23.6836 30.4783 23.6811C30.4689 23.6755 30.4581 23.6728 30.4473 23.6732H30.3894V23.6738ZM30.4479 23.6302C30.4727 23.6287 30.4972 23.6358 30.5173 23.6502C30.5254 23.6568 30.5318 23.6652 30.536 23.6747C30.5402 23.6841 30.5422 23.6945 30.5416 23.7048C30.542 23.7138 30.5405 23.7227 30.5371 23.7309C30.5337 23.7392 30.5286 23.7467 30.5221 23.7528C30.5066 23.7662 30.4871 23.7743 30.4666 23.7758L30.5441 23.8637H30.4844L30.4132 23.7764H30.3901V23.8637H30.3401V23.6303H30.4486L30.4479 23.6302ZM30.4324 23.9442C30.4585 23.9445 30.4845 23.9392 30.5085 23.9288C30.5316 23.9189 30.5526 23.9047 30.5705 23.887C30.5883 23.8693 30.6026 23.8484 30.6125 23.8253C30.6328 23.7764 30.6328 23.7215 30.6125 23.6726C30.6025 23.6496 30.5882 23.6287 30.5705 23.6109C30.5526 23.5932 30.5316 23.579 30.5085 23.5691C30.4843 23.5593 30.4585 23.5543 30.4324 23.5546C30.4058 23.5544 30.3795 23.5593 30.3549 23.5691C30.3312 23.5788 30.3097 23.593 30.2915 23.6109C30.2641 23.6389 30.2455 23.6743 30.2382 23.7127C30.2308 23.7511 30.2349 23.7908 30.2501 23.8268C30.2595 23.85 30.2736 23.871 30.2915 23.8885C30.3097 23.9064 30.3312 23.9206 30.3549 23.9303C30.3794 23.9407 30.4057 23.946 30.4324 23.9458M30.4324 23.4985C30.5005 23.4984 30.5659 23.525 30.6145 23.5725C30.6379 23.5953 30.6566 23.6225 30.6694 23.6526C30.6826 23.6834 30.6894 23.7166 30.6894 23.7501C30.6894 23.7836 30.6826 23.8168 30.6694 23.8477C30.6563 23.8775 30.6377 23.9047 30.6145 23.9277C30.5907 23.9504 30.5631 23.9687 30.5328 23.9817C30.5011 23.9951 30.4669 24.002 30.4324 24.0018C30.3975 24.002 30.3629 23.9952 30.3307 23.9817C30.3001 23.969 30.2722 23.9507 30.2484 23.9277C30.2252 23.9038 30.2069 23.8758 30.1943 23.845C30.181 23.8142 30.1742 23.781 30.1742 23.7475C30.1742 23.714 30.181 23.6808 30.1943 23.6499C30.2071 23.6199 30.2257 23.5927 30.2492 23.5699C30.2726 23.5465 30.3006 23.5282 30.3315 23.5159C30.3636 23.5024 30.3982 23.4956 30.4331 23.4958M6.69877 22.5972C6.69877 22.1522 6.99172 21.7867 7.47051 21.7867C7.92807 21.7867 8.23683 22.1365 8.23683 22.5972C8.23683 23.0579 7.92807 23.4078 7.47051 23.4078C6.99172 23.4078 6.69877 23.0422 6.69877 22.5972ZM8.75841 22.5972V21.3309H8.20521V21.6394C8.02975 21.4114 7.76362 21.2684 7.40169 21.2684C6.68869 21.2684 6.12914 21.8249 6.12914 22.5978C6.12914 23.3708 6.68838 23.9273 7.40169 23.9273C7.76346 23.9273 8.02975 23.7841 8.20521 23.5563V23.8637H8.75779V22.5972H8.75841ZM27.4502 22.5972C27.4502 22.1522 27.7431 21.7867 28.2221 21.7867C28.6801 21.7867 28.9884 22.1365 28.9884 22.5972C28.9884 23.0579 28.6801 23.4078 28.2221 23.4078C27.7433 23.4078 27.4502 23.0422 27.4502 22.5972ZM29.5104 22.5972V20.3145H28.9568V21.6394C28.7813 21.4114 28.5152 21.2684 28.1532 21.2684C27.4403 21.2684 26.8807 21.8249 26.8807 22.5978C26.8807 23.3708 27.4399 23.9273 28.1532 23.9273C28.5152 23.9273 28.7813 23.7841 28.9568 23.5563V23.8637H29.5104V22.5972ZM15.6243 21.7606C15.9808 21.7606 16.2097 21.983 16.2682 22.3747H14.9482C15.0072 22.0091 15.2303 21.7606 15.6244 21.7606M15.6354 21.267C14.8899 21.267 14.3683 21.8069 14.3683 22.5965C14.3683 23.4014 14.9108 23.9259 15.6725 23.9259C16.0557 23.9259 16.4066 23.8307 16.7153 23.5711L16.4442 23.1631C16.231 23.3328 15.9594 23.428 15.7041 23.428C15.3476 23.428 15.023 23.2637 14.9432 22.8079H16.8322C16.8376 22.7394 16.8432 22.6703 16.8432 22.5963C16.8376 21.8071 16.3472 21.2669 15.6351 21.2669M22.3141 22.5963C22.3141 22.1513 22.607 21.7858 23.0858 21.7858C23.5434 21.7858 23.8522 22.1356 23.8522 22.5963C23.8522 23.057 23.5434 23.4068 23.0858 23.4068C22.607 23.4068 22.3139 23.0413 22.3139 22.5963M24.3736 22.5963V21.3309H23.8207V21.6394C23.6446 21.4114 23.3791 21.2684 23.0172 21.2684C22.3042 21.2684 21.7446 21.8249 21.7446 22.5978C21.7446 23.3708 22.3039 23.9273 23.0172 23.9273C23.3791 23.9273 23.6446 23.7841 23.8207 23.5563V23.8637H24.3737V22.5972L24.3736 22.5963ZM19.1901 22.5963C19.1901 23.3643 19.7273 23.9257 20.5472 23.9257C20.9304 23.9257 21.1857 23.8409 21.4617 23.6239L21.1961 23.1789C20.9884 23.3274 20.7703 23.4068 20.5296 23.4068C20.088 23.4014 19.7633 23.0837 19.7633 22.5963C19.7633 22.1089 20.088 21.7913 20.5296 21.7858C20.7697 21.7858 20.9878 21.8652 21.1961 22.0137L21.4617 21.5687C21.1852 21.3517 20.9299 21.2669 20.5472 21.2669C19.7273 21.2669 19.1901 21.8282 19.1901 22.5963ZM26.3216 21.2669C26.0025 21.2669 25.7946 21.4154 25.6509 21.6378V21.3309H25.1027V23.8623H25.6565V22.4433C25.6565 22.0244 25.8374 21.7916 26.199 21.7916C26.3174 21.7899 26.435 21.8116 26.545 21.8553L26.7155 21.3365C26.593 21.2885 26.4334 21.2674 26.3213 21.2674M11.4934 21.5322C11.2272 21.3576 10.8605 21.2674 10.456 21.2674C9.81148 21.2674 9.39654 21.5748 9.39654 22.0777C9.39654 22.4905 9.70546 22.7451 10.2743 22.8246L10.5356 22.8616C10.839 22.904 10.9822 22.9835 10.9822 23.1264C10.9822 23.3222 10.7807 23.4338 10.4023 23.4338C10.0192 23.4338 9.74266 23.312 9.55619 23.169L9.29626 23.5983C9.59959 23.8207 9.98275 23.9268 10.3977 23.9268C11.1324 23.9268 11.5582 23.5825 11.5582 23.1005C11.5582 22.6555 11.2231 22.4228 10.6694 22.3433L10.4087 22.3057C10.1692 22.2749 9.97733 22.2269 9.97733 22.0572C9.97733 21.8721 10.1582 21.7608 10.4617 21.7608C10.7864 21.7608 11.1008 21.8826 11.2548 21.9778L11.4943 21.5328L11.4934 21.5322ZM18.6313 21.2678C18.3121 21.2678 18.1043 21.4164 17.9612 21.6388V21.3309H17.413V23.8623H17.9662V22.4433C17.9662 22.0244 18.1471 21.7916 18.5087 21.7916C18.6271 21.7899 18.7447 21.8116 18.8546 21.8553L19.0251 21.3365C18.9027 21.2885 18.743 21.2674 18.631 21.2674M13.9106 21.3309H13.006V20.5629H12.4468V21.3309H11.9308V21.834H12.4468V22.9888C12.4468 23.5762 12.6759 23.926 13.3303 23.926C13.5704 23.926 13.8469 23.852 14.0224 23.7303L13.8626 23.2589C13.6975 23.3541 13.5166 23.4021 13.3728 23.4021C13.0962 23.4021 13.006 23.2324 13.006 22.9784V21.8345H13.9106V21.3309ZM5.63996 23.8629V22.2742C5.63996 21.6759 5.2568 21.2734 4.63913 21.268C4.3144 21.2626 3.97945 21.3631 3.74493 21.7184C3.56947 21.4376 3.29295 21.268 2.90421 21.268C2.6325 21.268 2.36698 21.3474 2.15913 21.6439V21.3309H1.60547V23.8623H2.16347V22.4587C2.16347 22.0193 2.40837 21.7858 2.78657 21.7858C3.15392 21.7858 3.33976 22.0241 3.33976 22.4532V23.862H3.899V22.4584C3.899 22.019 4.15429 21.7855 4.52148 21.7855C4.89922 21.7855 5.07948 22.0238 5.07948 22.4529V23.8617L5.63996 23.8629Z" fill="white"/>
<path d="M19.6958 17.0314H11.3125V2.03906H19.696L19.6958 17.0314Z" fill="white"/>
<path d="M11.842 9.53452C11.842 6.49334 13.273 3.78424 15.5012 2.03838C13.8145 0.714903 11.7284 -0.00339201 9.5804 -0.00023377C4.28916 -0.00023377 0 4.26856 0 9.53452C0 14.8005 4.28916 19.0693 9.5804 19.0693C11.7284 19.0725 13.8147 18.3542 15.5014 17.0307C13.2733 15.2851 11.842 12.5759 11.842 9.53452Z" fill="white"/>
<path d="M31.0022 9.53477C31.0022 14.8007 26.713 19.0695 21.4218 19.0695C19.2735 19.0727 17.1871 18.3544 15.5 17.0309C17.7289 15.285 19.1599 12.5761 19.1599 9.53477C19.1599 6.49343 17.7289 3.78448 15.5 2.03862C17.187 0.715187 19.2734 -0.00309251 21.4216 1.00087e-05C26.7129 1.00087e-05 31.002 4.2688 31.002 9.53477" fill="white"/>
</g>
<defs>
<clipPath id="clip0_232_2896">
<rect width="31" height="24" fill="white"/>
</clipPath>
</defs>
</svg>
