<svg width="46" height="14" viewBox="0 0 46 14" fill="none" xmlns="http://www.w3.org/2000/svg">
<g clip-path="url(#clip0_232_2901)">
<path d="M13.6484 0.277348L9.79348 9.43821L8.23207 1.64996C8.1693 1.26715 7.96255 0.918149 7.64932 0.666309C7.33609 0.414469 6.93715 0.276473 6.52489 0.277348H0.220947L0.136719 0.666922C1.3993 0.903005 2.62643 1.28321 3.7908 1.79909C4.33503 2.08213 4.49052 2.32257 4.66869 2.98605L7.6263 13.7265H11.5428L17.5454 0.277348H13.6484Z" fill="white"/>
<path d="M19.1309 0.277344L16.0664 13.7356H19.7756L22.8304 0.277344H19.1309Z" fill="white"/>
<path d="M27.699 4.00516C27.699 3.52429 28.2011 3.00995 29.2701 2.873C30.5242 2.76591 31.7858 2.97608 32.9242 3.48169L33.5721 0.629936C32.4645 0.234676 31.2907 0.0285382 30.1059 0.0212402C26.4421 0.0212402 23.8668 1.84733 23.8408 4.4769C23.8214 6.41255 25.6841 7.49298 27.0803 8.12907C28.4765 8.76516 29.0239 9.20951 29.0013 9.80298C29.0013 10.716 27.848 11.0995 26.7855 11.1147C25.4596 11.1426 24.1482 10.8513 22.9759 10.2686L22.3086 13.2178C23.6222 13.6969 25.02 13.9395 26.4291 13.933C30.3165 13.933 32.8627 12.1252 32.8789 9.3282C32.8789 5.77342 27.6504 5.57865 27.6958 3.99299" fill="white"/>
<path d="M38.4259 8.96957L40.3955 3.91436L41.5033 8.96957H38.4259ZM39.8318 0.277397C39.4936 0.274795 39.1624 0.367704 38.8811 0.544073C38.5998 0.720442 38.3814 0.972136 38.2542 1.26653L32.6953 13.7448H36.5826L37.3569 11.7331H42.0994L42.5465 13.7448H45.9835L42.9967 0.277397H39.8318Z" fill="white"/>
</g>
<defs>
<clipPath id="clip0_232_2901">
<rect width="46" height="14" fill="white"/>
</clipPath>
</defs>
</svg>
