<svg width="14" height="14" viewBox="0 0 14 14" fill="none" xmlns="http://www.w3.org/2000/svg">
<g clip-path="url(#clip0_153_2160)">
<path d="M13.8139 12.8197L11.2165 10.2433C12.2247 8.9862 12.713 7.39056 12.5809 5.78449C12.4488 4.17843 11.7063 2.68402 10.5062 1.60855C9.30613 0.533073 7.73957 -0.0417195 6.12869 0.00236006C4.5178 0.0464396 2.98503 0.70604 1.84553 1.84553C0.70604 2.98503 0.0464396 4.5178 0.00236006 6.12869C-0.0417195 7.73957 0.533073 9.30612 1.60855 10.5062C2.68402 11.7063 4.17843 12.4488 5.7845 12.5809C7.39056 12.713 8.9862 12.2247 10.2433 11.2165L12.8197 13.7929C12.8848 13.8585 12.9623 13.9106 13.0476 13.9462C13.1329 13.9817 13.2244 14 13.3168 14C13.4093 14 13.5008 13.9817 13.5861 13.9462C13.6714 13.9106 13.7488 13.8585 13.8139 13.7929C13.9401 13.6624 14.0106 13.4879 14.0106 13.3063C14.0106 13.1248 13.9401 12.9503 13.8139 12.8197ZM6.31567 11.2165C5.34639 11.2165 4.39886 10.9291 3.59293 10.3905C2.787 9.85204 2.15885 9.08664 1.78792 8.19113C1.41699 7.29563 1.31993 6.31024 1.50903 5.35957C1.69813 4.40891 2.16489 3.53567 2.85028 2.85028C3.53567 2.16489 4.40891 1.69813 5.35957 1.50903C6.31024 1.31993 7.29563 1.41699 8.19113 1.78792C9.08664 2.15885 9.85204 2.787 10.3905 3.59293C10.9291 4.39886 11.2165 5.34638 11.2165 6.31567C11.2165 7.61545 10.7001 8.86199 9.78107 9.78107C8.86199 10.7001 7.61545 11.2165 6.31567 11.2165Z" fill="#353535"/>
</g>
<defs>
<clipPath id="clip0_153_2160">
<rect width="14" height="14" fill="white"/>
</clipPath>
</defs>
</svg>
