<svg width="22" height="16" viewBox="0 0 22 16" fill="none" xmlns="http://www.w3.org/2000/svg">
<path d="M21.9984 5.69922C21.9984 4.29922 21.6984 2.79922 21.0984 1.59922C20.6984 1.09922 20.0984 0.699219 19.3984 0.599219C16.5984 0.299219 13.7984 0.199219 10.9984 0.299219C8.19844 0.299219 5.39844 0.399219 2.69844 0.599219C2.09844 0.699219 1.59844 0.899219 1.19844 1.29922C0.298438 2.09922 0.198438 3.59922 0.0984375 4.69922C-0.0015625 6.89922 -0.0015625 8.99922 0.0984375 11.1992C0.0984375 11.8992 0.198437 12.4992 0.398437 13.1992C0.498437 13.6992 0.798437 14.1992 1.09844 14.5992C1.49844 14.9992 1.99844 15.2992 2.59844 15.3992C4.79844 15.6992 6.89844 15.7992 9.09844 15.6992C12.5984 15.6992 15.6984 15.6992 19.2984 15.3992C19.8984 15.2992 20.3984 14.9992 20.7984 14.5992C21.0984 14.2992 21.2984 13.9992 21.3984 13.5992C21.7984 12.4992 21.8984 11.3992 21.8984 10.1992C21.9984 9.69922 21.9984 6.29922 21.9984 5.69922ZM8.69844 10.8992V4.69922L14.5984 7.79922C12.9984 8.69922 10.7984 9.69922 8.69844 10.8992Z" fill="white"/>
</svg>
