<svg width="20" height="20" viewBox="0 0 20 20" fill="none" xmlns="http://www.w3.org/2000/svg">
<g clip-path="url(#clip0_232_2884)">
<path d="M14.0426 0H5.95735C2.67241 0 0 2.67241 0 5.95735V14.0426C0 17.3276 2.67241 20 5.95735 20H14.0426C17.3276 20 20 17.3276 20 14.0426V5.95735C20 2.67241 17.3276 0 14.0426 0ZM17.99 14.0426C17.99 16.2205 16.225 17.99 14.0426 17.99H5.95735C3.77949 17.99 2.00998 16.225 2.00998 14.0426V5.95735C2.00998 3.77949 3.77495 2.00998 5.95735 2.00998H14.0426C16.2205 2.00998 17.99 3.77495 17.99 5.95735V14.0426Z" fill="white"/>
<path d="M10.0005 4.82812C7.14664 4.82812 4.82812 7.14664 4.82812 10.0005C4.82812 12.8544 7.14664 15.173 10.0005 15.173C12.8544 15.173 15.173 12.8544 15.173 10.0005C15.173 7.14664 12.8544 4.82812 10.0005 4.82812ZM10.0005 13.163C8.25371 13.163 6.83811 11.7474 6.83811 10.0005C6.83811 8.25371 8.25371 6.83811 10.0005 6.83811C11.7474 6.83811 13.163 8.25371 13.163 10.0005C13.163 11.7474 11.7474 13.163 10.0005 13.163Z" fill="white"/>
<path d="M16.4226 4.86759C16.4226 5.55271 15.8691 6.10625 15.184 6.10625C14.4989 6.10625 13.9453 5.55271 13.9453 4.86759C13.9453 4.18247 14.4989 3.62893 15.184 3.62893C15.8646 3.6244 16.4226 4.18247 16.4226 4.86759Z" fill="white"/>
</g>
<defs>
<clipPath id="clip0_232_2884">
<rect width="20" height="20" fill="white"/>
</clipPath>
</defs>
</svg>
