<svg width="24" height="14" viewBox="0 0 24 14" fill="none" xmlns="http://www.w3.org/2000/svg">
<g clip-path="url(#clip0_232_2890)">
<path d="M0.23043 2.11853C0.0286077 1.58335 -0.229276 1.0254 0.381796 0.72365C1.62076 0.706569 2.85972 0.689489 4.10429 0.672409C4.64248 0.689489 4.88915 1.09372 5.17507 1.65736C6.01039 3.29136 6.87934 4.91966 7.9277 6.41702C8.26967 6.90665 8.84711 7.09453 9.30121 6.31454C9.35166 5.26127 9.40212 4.20799 9.45257 3.15472C9.28439 1.93064 8.86393 1.20759 8.12952 1.13357C7.70906 0.717956 8.01179 0.376354 8.95362 0.194166C10.4505 -0.130356 11.7567 0.0176716 12.906 0.165699C13.8758 0.228326 14.016 0.894451 13.9992 1.65736C13.9655 3.05224 13.9375 4.45281 13.9375 5.84768C14.2234 7.26533 14.9859 6.696 15.4904 6.08111C16.393 4.77733 17.1779 3.50771 17.8338 2.07867C18.5121 0.609782 18.6971 0.717956 19.1737 0.712263C20.3117 0.706569 21.5675 0.649636 22.4757 0.683796C24.3706 0.569929 24.1519 1.42393 23.6194 2.32918C22.6999 3.90624 21.517 5.32959 20.4631 6.83264C19.824 7.71511 19.8352 8.26737 20.5135 8.74561C21.517 9.8672 22.6046 10.9148 23.5184 12.1104C24.5107 13.4142 23.7819 13.7729 22.8569 13.8696C21.7525 13.8696 20.6481 13.8696 19.5437 13.8696C18.6018 13.8867 17.7497 13.6476 17.1498 12.6285C15.7651 10.7668 14.7336 10.2544 14.3187 11.3019C14.1393 11.7631 13.988 12.3837 13.9936 12.9872C13.9992 13.8298 13.5002 13.8981 12.8219 13.9209C12.0931 13.9209 11.3362 14.1031 10.6299 13.9209C8.12952 13.2775 5.73008 12.0933 3.39231 8.02255C2.33835 6.2633 1.28439 4.33894 0.23043 2.11853Z" fill="white"/>
</g>
<defs>
<clipPath id="clip0_232_2890">
<rect width="24" height="14" fill="white"/>
</clipPath>
</defs>
</svg>
